<svg width="5000" height="5000" viewBox="0 0 5000 5000" fill="none" xmlns="http://www.w3.org/2000/svg">
<g opacity="0.2" clip-path="url(#clip0_1_2)">
<path d="M0.152344 4999.98H5000.09V0.0449219H0.152344V4999.98Z" fill="#FAF4ED"/>
<mask id="mask0_1_2" style="mask-type:luminance" maskUnits="userSpaceOnUse" x="0" y="0" width="5001" height="5000">
<path d="M0.152344 4999.98H5000.09V0.0449219H0.152344V4999.98Z" fill="white"/>
</mask>
<g mask="url(#mask0_1_2)">
<path d="M89.1505 1221.18C58.1618 1205.74 6.0119 1157.03 -26.7087 1112.96C-51.9944 1078.91 -53.2677 1077.9 -58.3916 1087.86C-67.5415 1105.64 -86.1671 1122.77 -99.5459 1125.71C-120.405 1130.29 -148.61 1114.26 -181.835 1078.95C-235.379 1022.03 -256.885 983.721 -285.414 894.428C-313.652 806.046 -325.079 746.239 -324.963 687.44C-324.703 603.505 -307.061 561.672 -268.914 555.232C-241.948 550.676 -241.071 549.266 -246.091 518.564C-251.044 488.271 -248.342 426.996 -240.977 402.116C-232.661 374.061 -207.141 337.025 -185.427 321.497C-154.076 299.077 -114.419 290.279 -74.4595 296.878C-35.7531 303.27 7.20938 323.108 39.759 349.615L64.0067 369.365L66.4908 345.207C70.7688 303.769 91.3241 278.759 120.874 279.041C152.07 279.338 198.205 318.024 234.312 374.166L254.225 405.124L270.39 388.15C311.169 345.327 374.378 357.182 421.218 416.439C468.074 475.718 487.537 536.937 496.676 653.836C501.789 719.229 506.09 748.027 514.652 774.264C529.652 820.217 532.475 845.305 527.034 884.383C519.074 941.556 491.609 981.851 460.6 981.851C444.887 981.851 444.019 982.637 444.019 996.912C444.019 1005.2 441.95 1014.05 439.411 1016.59C436.305 1019.69 436.305 1029.14 439.411 1045.51C447.21 1086.63 445.172 1142.75 434.881 1170.26C405.913 1247.67 334.602 1247.07 250.693 1168.72C232.035 1151.29 215.524 1137.03 214.005 1137.03C212.478 1137.03 211.239 1144.81 211.239 1154.32C211.239 1177.63 194.151 1209.98 175.189 1222.58C153.367 1237.08 119.951 1236.54 89.1456 1221.19L89.1505 1221.18Z" fill="#73C9C3"/>
<path d="M159.15 3493.25C132.545 3479.19 110.526 3447.96 91.564 3397.39L84.252 3377.9L71.95 3394.88C38.1434 3441.55 -5.39017 3454.52 -50.6596 3431.42C-81.0012 3415.95 -118.089 3365.27 -133.2 3318.65C-139.625 3298.82 -150.424 3294.21 -191.846 3293.59C-230.542 3293.01 -241.909 3286.16 -257.967 3253.74C-276.074 3217.17 -281.893 3177.28 -281.844 3090.1C-281.844 2931.57 -260.941 2817.27 -225.999 2783.4C-213.324 2771.12 -208.725 2769.25 -191.951 2769.59C-181.285 2769.8 -169.037 2770.72 -164.734 2771.62C-157.91 2773.07 -155.705 2767.94 -147.452 2731.44C-134.862 2675.76 -113.951 2604.56 -103.919 2583.22C-93.2825 2560.59 -80.0105 2548.58 -62.7847 2546C-32.1011 2541.4 -8.98962 2571.27 5.91318 2634.77L12.6868 2663.64L35.5991 2661.25C73.5416 2657.28 104.453 2675.71 127.069 2715.78L139.303 2737.46L149.244 2727.52C162.771 2713.99 183.818 2714.22 200.27 2728.06C213.661 2739.33 225.457 2766.83 252.711 2850.34L268.436 2898.53L287.232 2896.31C329.497 2891.32 369.339 2915.1 390.391 2957.88C407.749 2993.16 412.232 3024.2 406.632 3070.3C397.433 3146.03 379.965 3190.13 350.394 3212.3C344.144 3216.99 336.708 3222.77 333.873 3225.15C330.828 3227.71 328.717 3239.38 328.717 3253.62C328.717 3299.72 310.707 3375.77 288.833 3422.06C257.496 3488.37 204.725 3517.34 159.15 3493.25Z" fill="#F597AF"/>
<path d="M34.1508 2196.57C5.99422 2191.04 -18.1642 2168.69 -32.036 2135.34C-37 2123.41 -38.9743 2121.97 -50.3842 2121.97C-67.463 2121.97 -85.1764 2113.12 -95.6693 2099.36C-106.362 2085.32 -120.698 2056.97 -126.612 2038.15C-132.292 2020.09 -136.1 2015.84 -141.648 2021.39C-144.002 2023.74 -152.773 2025.67 -161.14 2025.67C-172.916 2025.67 -179.075 2023.28 -188.399 2015.1C-229.591 1978.93 -254.171 1858.58 -233.758 1793C-222.651 1757.32 -215.253 1750.39 -185.519 1747.81L-161.142 1745.69L-154.741 1707.6C-147.353 1663.64 -138.081 1641.4 -120.822 1626.25C-91.8609 1600.82 -54.8331 1624.2 -34.7313 1680.6C-25.4244 1706.71 -22.6225 1704.4 -14.2116 1663.68C-1.88672 1604.02 17.6989 1572.71 42.7006 1572.71C67.8952 1572.71 77.7911 1582.48 102.606 1631.85C109.428 1645.42 121.992 1675.68 130.527 1699.1C144.299 1736.88 146.322 1740.49 148.502 1731.2C162.313 1672.3 171.924 1652 190.567 1642.36C221.413 1626.41 250.863 1647.48 279.585 1706.05C310.432 1768.95 319.402 1815.31 312.581 1876.64C308.021 1917.65 291.729 1986.71 281.125 2009.97C255.998 2065.1 226.925 2077.88 194.118 2048.25L180.067 2035.55V2052.91C180.067 2076.05 174.229 2125.42 169.468 2143.1C161.137 2174.04 137.242 2189.96 89.1026 2196.66C58.567 2200.91 56.2174 2200.9 34.1777 2196.58L34.1508 2196.57Z" fill="#ADACD4"/>
<path d="M98.149 4668.76C75.3123 4658.74 57.0559 4631.95 47.0401 4593.76L38.3183 4560.5L22.1966 4577.59C8.6328 4591.97 2.51717 4594.68 -16.3356 4594.68C-42.9543 4594.68 -57.0989 4585.93 -68.1648 4562.61C-76.6297 4544.77 -88.6326 4476.67 -94.5365 4412.98C-97.9165 4376.5 -98.0938 4376.13 -112.68 4376.13C-129.039 4376.13 -145.518 4362.31 -153.171 4342.19C-160.917 4321.82 -180.07 4085.85 -176.12 4059.5C-171.342 4027.65 -156.77 4010.18 -134.969 4010.18C-125.551 4010.18 -116.436 4012.47 -114.706 4015.26C-112.978 4018.06 -109.183 4020.35 -106.266 4020.35C-102.763 4020.35 -102.163 4008.46 -104.48 3985.23C-112.346 3906.9 -81.0627 3853.59 -42.9112 3880.32C-32.6183 3887.52 -32.2874 3886.74 -26.8445 3842.55C-20.0726 3787.55 -10.7205 3767.92 13.5322 3757.78C38.5149 3747.34 60.2949 3752.47 89.6665 3775.7C116.876 3797.21 136.566 3830 149.503 3875.34C161.735 3918.21 175.912 3944.11 187.141 3944.11C212.175 3944.11 242.924 3989.2 252.995 4040.68C267.105 4112.82 280.749 4336.48 273.741 4380.79C268.705 4412.66 235.695 4460.79 217.062 4463.44C206.076 4464.99 205.361 4467.79 202.393 4520.98C196.111 4633.65 154.038 4693.3 98.1649 4668.76L98.149 4668.76Z" fill="#F5DC8F"/>
<path d="M5089.09 1221.18C5058.1 1205.74 5005.95 1157.03 4973.23 1112.96C4947.94 1078.91 4946.67 1077.9 4941.55 1087.86C4932.4 1105.64 4913.77 1122.77 4900.39 1125.71C4879.53 1130.29 4851.33 1114.26 4818.1 1078.95C4764.56 1022.03 4743.05 983.721 4714.52 894.428C4686.29 806.046 4674.86 746.239 4674.97 687.44C4675.23 603.505 4692.88 561.672 4731.02 555.232C4757.99 550.676 4758.87 549.266 4753.85 518.564C4748.89 488.271 4751.6 426.996 4758.96 402.116C4767.28 374.061 4792.8 337.025 4814.51 321.497C4845.86 299.077 4885.52 290.279 4925.48 296.878C4964.19 303.27 5007.15 323.108 5039.7 349.615L5063.94 369.365L5066.43 345.207C5070.71 303.769 5091.26 278.759 5120.81 279.041C5152.01 279.338 5198.14 318.024 5234.25 374.166L5254.16 405.124L5270.33 388.15C5311.11 345.327 5374.32 357.182 5421.16 416.439C5468.01 475.718 5487.47 536.937 5496.61 653.836C5501.73 719.229 5506.03 748.027 5514.59 774.264C5529.59 820.217 5532.41 845.305 5526.97 884.383C5519.01 941.556 5491.55 981.851 5460.54 981.851C5444.82 981.851 5443.96 982.637 5443.96 996.912C5443.96 1005.2 5441.89 1014.05 5439.35 1016.59C5436.24 1019.69 5436.24 1029.14 5439.35 1045.51C5447.15 1086.63 5445.11 1142.75 5434.82 1170.26C5405.85 1247.67 5334.54 1247.07 5250.63 1168.72C5231.97 1151.29 5215.46 1137.03 5213.94 1137.03C5212.41 1137.03 5211.18 1144.81 5211.18 1154.32C5211.18 1177.63 5194.09 1209.98 5175.13 1222.58C5153.3 1237.08 5119.89 1236.54 5089.08 1221.19L5089.09 1221.18Z" fill="#73C9C3"/>
<path d="M5159.29 3493.25C5132.68 3479.19 5110.66 3447.96 5091.7 3397.39L5084.39 3377.9L5072.09 3394.88C5038.28 3441.55 4994.75 3454.52 4949.48 3431.42C4919.14 3415.95 4882.05 3365.27 4866.94 3318.65C4860.51 3298.82 4849.71 3294.21 4808.29 3293.59C4769.6 3293.01 4758.23 3286.16 4742.17 3253.74C4724.06 3217.17 4718.24 3177.28 4718.29 3090.1C4718.29 2931.57 4739.2 2817.27 4774.14 2783.4C4786.81 2771.12 4791.41 2769.25 4808.19 2769.59C4818.85 2769.8 4831.1 2770.72 4835.4 2771.62C4842.23 2773.07 4844.43 2767.94 4852.69 2731.44C4865.28 2675.76 4886.19 2604.56 4896.22 2583.22C4906.86 2560.59 4920.13 2548.58 4937.35 2546C4968.04 2541.4 4991.15 2571.27 5006.05 2634.77L5012.82 2663.64L5035.74 2661.25C5073.68 2657.28 5104.59 2675.71 5127.21 2715.78L5139.44 2737.46L5149.38 2727.52C5162.91 2713.99 5183.96 2714.22 5200.41 2728.06C5213.8 2739.33 5225.59 2766.83 5252.85 2850.34L5268.57 2898.53L5287.37 2896.31C5329.63 2891.32 5369.48 2915.1 5390.53 2957.88C5407.89 2993.16 5412.37 3024.2 5406.77 3070.3C5397.57 3146.03 5380.1 3190.13 5350.53 3212.3C5344.28 3216.99 5336.85 3222.77 5334.01 3225.15C5330.97 3227.71 5328.85 3239.38 5328.85 3253.62C5328.85 3299.72 5310.84 3375.77 5288.97 3422.06C5257.63 3488.37 5204.86 3517.34 5159.29 3493.25Z" fill="#F597AF"/>
<path d="M5034.39 2196.57C5006.23 2191.04 4982.07 2168.69 4968.2 2135.34C4963.24 2123.41 4961.26 2121.97 4949.85 2121.97C4932.77 2121.97 4915.06 2113.12 4904.57 2099.36C4893.88 2085.32 4879.54 2056.97 4873.63 2038.15C4867.95 2020.09 4864.14 2015.84 4858.59 2021.39C4856.24 2023.74 4847.46 2025.67 4839.1 2025.67C4827.32 2025.67 4821.16 2023.28 4811.84 2015.1C4770.65 1978.93 4746.07 1858.58 4766.48 1793C4777.59 1757.32 4784.99 1750.39 4814.72 1747.81L4839.1 1745.69L4845.5 1707.6C4852.88 1663.64 4862.16 1641.4 4879.42 1626.25C4908.38 1600.82 4945.4 1624.2 4965.51 1680.6C4974.81 1706.71 4977.62 1704.4 4986.03 1663.68C4998.35 1604.02 5017.94 1572.71 5042.94 1572.71C5068.13 1572.71 5078.03 1582.48 5102.84 1631.85C5109.67 1645.42 5122.23 1675.68 5130.76 1699.1C5144.54 1736.88 5146.56 1740.49 5148.74 1731.2C5162.55 1672.3 5172.16 1652 5190.81 1642.36C5221.65 1626.41 5251.1 1647.48 5279.82 1706.05C5310.67 1768.95 5319.64 1815.31 5312.82 1876.64C5308.26 1917.65 5291.97 1986.71 5281.36 2009.97C5256.24 2065.1 5227.16 2077.88 5194.36 2048.25L5180.3 2035.55V2052.91C5180.3 2076.05 5174.47 2125.42 5169.71 2143.1C5161.37 2174.04 5137.48 2189.96 5089.34 2196.66C5058.81 2200.91 5056.46 2200.9 5034.42 2196.58L5034.39 2196.57Z" fill="#ADACD4"/>
<path d="M5098.59 4668.76C5075.75 4658.74 5057.49 4631.95 5047.48 4593.76L5038.76 4560.5L5022.63 4577.59C5009.07 4591.97 5002.96 4594.68 4984.1 4594.68C4957.48 4594.68 4943.34 4585.93 4932.27 4562.61C4923.81 4544.77 4911.81 4476.67 4905.9 4412.98C4902.52 4376.5 4902.34 4376.13 4887.76 4376.13C4871.4 4376.13 4854.92 4362.31 4847.27 4342.19C4839.52 4321.82 4820.37 4085.85 4824.32 4059.5C4829.1 4027.65 4843.67 4010.18 4865.47 4010.18C4874.89 4010.18 4884 4012.47 4885.73 4015.26C4887.46 4018.06 4891.26 4020.35 4894.17 4020.35C4897.67 4020.35 4898.27 4008.46 4895.96 3985.23C4888.09 3906.9 4919.38 3853.59 4957.53 3880.32C4967.82 3887.52 4968.15 3886.74 4973.59 3842.55C4980.37 3787.55 4989.72 3767.92 5013.97 3757.78C5038.95 3747.34 5060.73 3752.47 5090.1 3775.7C5117.31 3797.21 5137 3830 5149.94 3875.34C5162.17 3918.21 5176.35 3944.11 5187.58 3944.11C5212.61 3944.11 5243.36 3989.2 5253.43 4040.68C5267.54 4112.82 5281.19 4336.48 5274.18 4380.79C5269.14 4412.66 5236.13 4460.79 5217.5 4463.44C5206.51 4464.99 5205.8 4467.79 5202.83 4520.98C5196.55 4633.65 5154.48 4693.3 5098.6 4668.76L5098.59 4668.76Z" fill="#F5DC8F"/>
<path d="M1759.13 838.385C1715.07 843.938 1624.78 829.029 1558.52 805.264C1507.32 786.897 1505.24 786.728 1506.86 800.999C1509.73 826.483 1502.04 858.011 1489.85 870.659C1470.84 890.381 1429.34 893.33 1368.77 879.262C1271.15 856.589 1220.96 830.993 1127.01 755.974C1034.03 681.723 979.304 626.015 937.624 563.176C878.218 473.409 867.303 416.218 903.435 382.208C928.976 358.171 928.909 356.043 901.72 326.845C874.895 298.034 834.208 230.714 824.375 198.916C813.301 163.061 814.203 105.387 826.338 73.3781C843.858 27.1567 879.927 -10.4319 927.267 -31.8006C973.122 -52.5004 1033.09 -61.8764 1086.67 -56.7265L1126.59 -52.888L1112.06 -80.4386C1087.16 -127.706 1091.32 -169.016 1123.06 -189.727C1156.56 -211.593 1233.31 -203.108 1311.77 -168.863L1355.04 -149.982L1360.22 -179.592C1373.3 -254.294 1449.19 -286.591 1541.32 -256.649C1633.48 -226.698 1697.79 -175.194 1790.66 -56.9309C1842.61 9.22723 1867.68 36.906 1895.48 58.8177C1944.16 97.1973 1965.01 121.967 1986.99 167.546C2019.15 234.227 2018.49 296.765 1985.39 318.814C1968.62 329.987 1968.26 331.442 1978.41 346.679C1984.3 355.521 1988.38 366.442 1987.48 370.953C1986.37 376.475 1993.09 386.558 2008.04 401.821C2045.6 440.166 2083.34 501.514 2091.91 538.189C2116.04 641.408 2039.5 691.488 1894.23 667.508C1861.93 662.177 1834.17 658.702 1832.55 659.782C1830.92 660.868 1835.13 670.053 1841.89 680.203C1858.46 705.073 1863.22 751.751 1851.95 778.683C1838.97 809.677 1802.92 832.864 1759.13 838.385Z" fill="#F597AF"/>
<path d="M3449.61 3213.45C3411.21 3217.37 3365.51 3199.69 3309.31 3159.2L3287.64 3143.59L3286.59 3170.47C3283.69 3244.31 3246.45 3289.12 3181.71 3296.66C3138.32 3301.71 3062.7 3273.99 3013.42 3234.98C2992.47 3218.39 2977.66 3221.14 2933.02 3249.94C2891.3 3276.84 2874.3 3277.61 2834.11 3254.42C2788.78 3228.27 2754.21 3189.84 2692.27 3096.74C2579.55 2927.54 2520.58 2790.69 2533.79 2729.7C2538.58 2707.57 2542.17 2702.31 2560.31 2690.74C2571.84 2683.38 2585.56 2675.65 2590.8 2673.56C2599.11 2670.25 2597.82 2663.21 2580.67 2618.38C2554.52 2550 2526.21 2459.14 2521.74 2429.23C2517.01 2397.51 2522.63 2375.26 2539.18 2360.26C2568.66 2333.54 2614.57 2348.98 2675.63 2406.16L2703.39 2432.16L2726.14 2413.31C2763.82 2382.1 2809.91 2379.79 2862.54 2406.47L2891.01 2420.91L2894.55 2403.23C2899.37 2379.18 2921.99 2364.45 2949.4 2367.53C2971.7 2370.03 3003.85 2391 3092.31 2460.75L3143.36 2501L3161.84 2485.27C3203.41 2449.89 3262.84 2446.94 3315.73 2477.63C3359.34 2502.94 3386.2 2532.89 3413 2586.07C3457.03 2673.43 3469.75 2732.92 3453.95 2777.62C3450.61 2787.07 3446.79 2798.53 3445.46 2803.08C3444.02 2807.98 3450.06 2821.93 3460.2 2837.14C3492.97 2886.33 3527.83 2980.32 3537.4 3045.26C3551.1 3138.32 3515.38 3206.75 3449.61 3213.45Z" fill="#73C9C3"/>
<path d="M4009.1 4311.02C3975.12 4325.14 3933.45 4318.47 3894.92 4292.74C3881.14 4283.53 3878.01 4283.4 3865.83 4291.51C3847.6 4303.66 3822.41 4306.81 3801.42 4299.58C3780.03 4292.2 3744.57 4272.13 3724.87 4256.26C3705.96 4241.01 3698.88 4239.19 3696.91 4249.06C3696.07 4253.24 3688.08 4261.54 3679.15 4267.49C3666.58 4275.86 3658.31 4277.69 3642.53 4275.58C3572.85 4266.27 3461.05 4155.29 3436.2 4070.78C3422.68 4024.81 3425.65 4012.15 3455.55 3988.25L3480.06 3968.66L3459.81 3923.45C3436.43 3871.28 3430.52 3840.96 3438.17 3812.51C3450.99 3764.78 3507.14 3763.4 3568.69 3809.3C3597.2 3830.56 3598.54 3826.1 3578.56 3776.66C3549.29 3704.21 3547.93 3656.87 3574.62 3639.09C3601.51 3621.17 3619.02 3624.56 3680.61 3659.61C3697.54 3669.25 3732.47 3692.61 3758.23 3711.53C3799.79 3742.06 3804.52 3744.48 3800.24 3733.01C3773.1 3660.33 3768.92 3631.83 3781.97 3608.28C3803.55 3569.33 3849.96 3570.88 3922.26 3612.96C3999.92 3658.17 4042.45 3701.26 4078.77 3771.57C4103.07 3818.59 4134.79 3903.88 4140.01 3936.25C4152.38 4012.95 4130.45 4047.27 4074.36 4038.97L4050.33 4035.41L4062.67 4053.93C4079.13 4078.64 4108 4135.47 4115.49 4157.73C4128.6 4196.68 4114.43 4230.67 4067.81 4272.04C4038.24 4298.28 4035.72 4299.95 4009.13 4311.01L4009.1 4311.02Z" fill="#ADACD4"/>
<path d="M2603.12 2056.37C2571.62 2061.9 2533.08 2046.29 2495.24 2012.66L2462.28 1983.36L2457.22 2013.06C2452.97 2038.06 2448.38 2045.3 2428.25 2058.71C2399.84 2077.63 2378.52 2078.35 2350.13 2061.33C2328.41 2048.3 2267.18 1984.16 2215.59 1920.38C2186.04 1883.85 2185.59 1883.58 2170.02 1893.95C2152.57 1905.58 2125.15 1902.55 2102.67 1886.51C2079.92 1870.28 1891.69 1632.06 1877.17 1601.13C1859.63 1563.73 1862.76 1534.73 1886.03 1519.23C1896.08 1512.53 1907.43 1508.49 1911.27 1510.25C1915.1 1512 1920.78 1511.74 1923.89 1509.67C1927.63 1507.18 1919.82 1494.07 1900.83 1470.92C1836.74 1392.91 1832.22 1313.77 1891.94 1315.17C1908.05 1315.54 1907.85 1314.47 1882.23 1263.43C1850.35 1199.91 1846.37 1172.31 1865.05 1144.25C1884.29 1115.35 1911.18 1105.33 1959.05 1109.24C2003.39 1112.85 2047.72 1133.85 2093.77 1173.04C2137.3 1210.09 2170.85 1227.66 2182.84 1219.67C2209.55 1201.87 2274.43 1228.14 2321.78 1275.92C2388.14 1342.88 2561.73 1571.88 2585.76 1624.16C2603.05 1661.76 2602.04 1736.6 2584.03 1752.68C2573.42 1762.16 2574.65 1765.65 2609.3 1824.53C2682.71 1949.25 2680.21 2042.83 2603.13 2056.37L2603.12 2056.37Z" fill="#F5DC8F"/>
<path d="M3009.11 435.29C2975.13 449.412 2933.46 442.739 2894.93 417.009C2881.15 407.801 2878.02 407.667 2865.84 415.781C2847.61 427.924 2822.42 431.078 2801.43 423.844C2780.04 416.471 2744.58 396.403 2724.89 380.526C2705.98 365.28 2698.9 363.458 2696.92 373.325C2696.08 377.511 2688.09 385.804 2679.16 391.754C2666.59 400.128 2658.32 401.958 2642.55 399.851C2572.86 390.537 2461.06 279.562 2436.21 195.053C2422.69 149.076 2425.66 136.418 2455.56 112.519L2480.07 92.9265L2459.82 47.718C2436.45 -4.45135 2430.53 -34.7759 2438.18 -63.2206C2451.01 -110.951 2507.15 -112.33 2568.7 -66.4273C2597.21 -45.1726 2598.56 -49.6315 2578.58 -99.0749C2549.31 -171.519 2547.95 -218.863 2574.63 -236.643C2601.52 -254.558 2619.03 -251.167 2680.62 -216.121C2697.55 -206.485 2732.48 -183.12 2758.24 -164.199C2799.8 -133.668 2804.53 -131.251 2800.25 -142.719C2773.11 -215.402 2768.93 -243.898 2781.98 -267.448C2803.56 -306.403 2849.97 -304.855 2922.28 -262.769C2999.93 -217.566 3042.46 -174.468 3078.78 -104.161C3103.08 -57.1398 3134.8 28.1473 3140.02 60.5169C3152.4 137.216 3130.46 171.536 3074.37 163.236L3050.35 159.676L3062.69 178.201C3079.15 202.905 3108.02 259.743 3115.51 282C3128.62 320.948 3114.44 354.935 3067.82 396.308C3038.25 422.554 3035.74 424.221 3009.14 435.277L3009.11 435.29Z" fill="#ADACD4"/>
<path d="M3952.1 726.286C3929.69 703.466 3920.72 662.868 3926.98 612.637L3932.45 568.873L3905.11 581.542C3882.11 592.201 3873.54 592.517 3851.09 583.534C3819.39 570.851 3806.72 553.688 3804.66 520.651C3803.08 495.373 3821.24 408.582 3844.56 329.923C3857.92 284.874 3857.88 284.353 3840.51 277.403C3821.03 269.609 3808 245.304 3808.47 217.692C3808.96 189.748 3898.58 -100.334 3915.84 -129.824C3936.71 -165.472 3962.38 -179.326 3988.34 -168.938C3999.55 -164.45 4009.32 -157.384 4010.05 -153.231C4010.77 -149.079 4014.2 -144.549 4017.67 -143.158C4021.84 -141.488 4028.22 -155.353 4036.53 -184.113C4064.49 -281.129 4127.14 -329.701 4159.83 -279.705C4168.65 -266.218 4169.42 -266.991 4196.95 -317.02C4231.22 -379.281 4251.71 -398.197 4285.42 -398.708C4320.14 -399.232 4343.63 -382.753 4367.53 -341.1C4389.68 -302.515 4397.5 -254.093 4391.3 -193.942C4385.44 -137.074 4389.98 -99.4784 4403.35 -94.1274C4433.15 -82.1996 4448.28 -13.8583 4435.74 52.2309C4418.17 144.854 4327.85 417.646 4298.39 467.076C4277.21 502.627 4214.97 544.206 4191.52 538.477C4177.7 535.098 4175.52 538.092 4146.64 600.008C4085.48 731.166 4006.96 782.135 3952.12 726.306L3952.1 726.286Z" fill="#F5DC8F"/>
<path d="M1759.13 5838.32C1715.07 5843.87 1624.78 5828.97 1558.52 5805.2C1507.32 5786.83 1505.24 5786.67 1506.86 5800.94C1509.73 5826.42 1502.04 5857.95 1489.85 5870.6C1470.84 5890.32 1429.34 5893.27 1368.77 5879.2C1271.15 5856.53 1220.96 5830.93 1127.01 5755.91C1034.03 5681.66 979.304 5625.95 937.624 5563.11C878.218 5473.35 867.303 5416.15 903.435 5382.15C928.976 5358.11 928.909 5355.98 901.72 5326.78C874.895 5297.97 834.208 5230.65 824.375 5198.85C813.301 5163 814.203 5105.32 826.338 5073.31C843.858 5027.09 879.927 4989.5 927.267 4968.14C973.122 4947.44 1033.09 4938.06 1086.67 4943.21L1126.59 4947.05L1112.06 4919.5C1087.16 4872.23 1091.32 4830.92 1123.06 4810.21C1156.56 4788.34 1233.31 4796.83 1311.77 4831.07L1355.04 4849.96L1360.22 4820.34C1373.3 4745.64 1449.19 4713.35 1541.32 4743.29C1633.48 4773.24 1697.79 4824.74 1790.66 4943.01C1842.61 5009.16 1867.68 5036.84 1895.48 5058.75C1944.16 5097.13 1965.01 5121.9 1986.99 5167.48C2019.15 5234.16 2018.49 5296.7 1985.39 5318.75C1968.62 5329.92 1968.26 5331.38 1978.41 5346.62C1984.3 5355.46 1988.38 5366.38 1987.48 5370.89C1986.37 5376.41 1993.09 5386.5 2008.04 5401.76C2045.6 5440.1 2083.34 5501.45 2091.91 5538.13C2116.04 5641.35 2039.5 5691.42 1894.23 5667.44C1861.93 5662.11 1834.17 5658.64 1832.55 5659.72C1830.92 5660.81 1835.13 5669.99 1841.89 5680.14C1858.46 5705.01 1863.22 5751.69 1851.95 5778.62C1838.97 5809.61 1802.92 5832.8 1759.13 5838.32Z" fill="#F597AF"/>
<path d="M3009.11 5435.25C2975.13 5449.37 2933.46 5442.7 2894.93 5416.97C2881.15 5407.76 2878.02 5407.62 2865.84 5415.74C2847.61 5427.88 2822.42 5431.04 2801.43 5423.8C2780.04 5416.43 2744.58 5396.36 2724.89 5380.48C2705.98 5365.24 2698.9 5363.41 2696.92 5373.28C2696.08 5377.47 2688.09 5385.76 2679.16 5391.71C2666.59 5400.09 2658.32 5401.92 2642.55 5399.81C2572.86 5390.49 2461.06 5279.52 2436.21 5195.01C2422.69 5149.03 2425.66 5136.38 2455.56 5112.48L2480.07 5092.88L2459.82 5047.68C2436.45 4995.51 2430.53 4965.18 2438.18 4936.74C2451.01 4889.01 2507.15 4887.63 2568.7 4933.53C2597.21 4954.78 2598.56 4950.33 2578.58 4900.88C2549.31 4828.44 2547.95 4781.09 2574.63 4763.31C2601.52 4745.4 2619.03 4748.79 2680.62 4783.84C2697.55 4793.47 2732.48 4816.84 2758.24 4835.76C2799.8 4866.29 2804.53 4868.71 2800.25 4857.24C2773.11 4784.55 2768.93 4756.06 2781.98 4732.51C2803.56 4693.55 2849.97 4695.1 2922.28 4737.19C2999.93 4782.39 3042.46 4825.49 3078.78 4895.8C3103.08 4942.82 3134.8 5028.1 3140.02 5060.47C3152.4 5137.17 3130.46 5171.49 3074.37 5163.19L3050.35 5159.63L3062.69 5178.16C3079.15 5202.86 3108.02 5259.7 3115.51 5281.96C3128.62 5320.91 3114.44 5354.89 3067.82 5396.27C3038.25 5422.51 3035.74 5424.18 3009.14 5435.23L3009.11 5435.25Z" fill="#ADACD4"/>
<path d="M3952.1 5726.22C3929.69 5703.4 3920.72 5662.8 3926.98 5612.57L3932.45 5568.81L3905.11 5581.48C3882.11 5592.14 3873.54 5592.45 3851.09 5583.47C3819.39 5570.79 3806.72 5553.63 3804.66 5520.59C3803.08 5495.31 3821.24 5408.52 3844.56 5329.86C3857.92 5284.81 3857.88 5284.29 3840.51 5277.34C3821.03 5269.55 3808 5245.24 3808.47 5217.63C3808.96 5189.68 3898.58 4899.6 3915.84 4870.11C3936.71 4834.47 3962.38 4820.61 3988.34 4831C3999.55 4835.49 4009.32 4842.55 4010.05 4846.71C4010.77 4850.86 4014.2 4855.39 4017.67 4856.78C4021.84 4858.45 4028.22 4844.58 4036.53 4815.82C4064.49 4718.81 4127.14 4670.24 4159.83 4720.23C4168.65 4733.72 4169.42 4732.95 4196.95 4682.92C4231.22 4620.66 4251.71 4601.74 4285.42 4601.23C4320.14 4600.71 4343.63 4617.18 4367.53 4658.84C4389.68 4697.42 4397.5 4745.84 4391.3 4805.99C4385.44 4862.86 4389.98 4900.46 4403.35 4905.81C4433.15 4917.74 4448.28 4986.08 4435.74 5052.17C4418.17 5144.79 4327.85 5417.58 4298.39 5467.01C4277.21 5502.56 4214.97 5544.14 4191.52 5538.41C4177.7 5535.04 4175.52 5538.03 4146.64 5599.94C4085.48 5731.1 4006.96 5782.07 3952.12 5726.24L3952.1 5726.22Z" fill="#F5DC8F"/>
<path d="M1662.13 3073.76C1606.1 3080.82 1491.26 3061.86 1406.99 3031.63C1341.88 3008.27 1339.24 3008.06 1341.29 3026.21C1344.95 3058.62 1335.15 3098.72 1319.65 3114.8C1295.48 3139.89 1242.7 3143.64 1165.66 3125.74C1041.52 3096.91 977.677 3064.35 858.199 2968.95C739.941 2874.51 670.341 2803.67 617.332 2723.75C541.78 2609.58 527.899 2536.84 573.852 2493.6C606.336 2463.03 606.249 2460.32 571.669 2423.19C537.553 2386.55 485.809 2300.93 473.303 2260.49C459.22 2214.89 460.366 2141.54 475.799 2100.82C498.082 2042.04 543.953 1994.23 604.167 1967.05C662.486 1940.73 738.746 1928.8 806.895 1935.35L857.667 1940.24L839.192 1905.2C807.526 1845.08 812.81 1792.55 853.176 1766.21C895.791 1738.4 993.394 1749.19 1093.18 1792.74L1148.21 1816.76L1154.8 1779.1C1171.43 1684.09 1267.95 1643.02 1385.12 1681.1C1502.33 1719.19 1584.12 1784.69 1702.23 1935.09C1768.3 2019.23 1800.18 2054.43 1835.53 2082.31C1897.45 2131.12 1923.97 2162.63 1951.92 2220.59C1992.82 2305.4 1991.98 2384.93 1949.89 2412.97C1928.56 2427.18 1928.09 2429.03 1941 2448.41C1948.5 2459.65 1953.69 2473.54 1952.54 2479.28C1951.12 2486.3 1959.67 2499.13 1978.69 2518.54C2026.46 2567.3 2074.45 2645.33 2085.36 2691.97C2116.05 2823.24 2018.71 2886.92 1833.95 2856.44C1792.87 2849.66 1757.56 2845.24 1755.5 2846.62C1753.43 2848 1758.78 2859.68 1767.38 2872.59C1788.45 2904.22 1794.52 2963.58 1780.17 2997.84C1763.66 3037.26 1717.82 3066.74 1662.11 3073.76L1662.13 3073.76Z" fill="#F597AF"/>
<path d="M2690.12 3572.15C2670.06 3628.83 2614.72 3681.43 2520.27 3733.61L2483.86 3753.73L2521.01 3773.11C2623.08 3826.38 2661.38 3908.66 2628.88 4004.87C2607.1 4069.34 2517.7 4157.38 2429.93 4200.8C2392.61 4219.27 2386.62 4241.95 2397.44 4324.01C2407.54 4400.67 2397.28 4425.13 2337.88 4466.3C2270.86 4512.72 2193.7 4535.81 2021.34 4561.05C1707.98 4607.12 1475.96 4599.01 1398.85 4539.78C1370.88 4518.3 1365.86 4509.75 1361.64 4476.49C1358.96 4455.35 1357.22 4430.87 1357.76 4422.1C1358.63 4408.19 1347.85 4405.33 1273.3 4399.62C1159.58 4390.91 1012.76 4370.27 967.66 4356.64C919.831 4342.18 892.24 4319.44 882.133 4286.14C864.132 4226.82 916.451 4172.46 1037.65 4124.54L1092.75 4102.76L1081.36 4058.16C1062.49 3984.31 1089.94 3917.86 1162.58 3861.51L1201.88 3831.02L1179.33 3814.26C1148.67 3791.45 1142.99 3749.78 1165.58 3713.24C1183.96 3683.49 1234.9 3652.19 1392.05 3574.04L1482.74 3528.96L1472.89 3492.44C1450.75 3410.34 1486.18 3324.68 1564.64 3270.63C1629.32 3226.06 1689.38 3208.18 1782.14 3205.85C1934.51 3202.03 2026.76 3223.75 2079.18 3275.76C2090.26 3286.75 2103.85 3299.77 2109.39 3304.68C2115.33 3309.96 2139 3310.74 2167.16 3306.6C2258.28 3293.21 2413.86 3306.71 2511.71 3336.49C2651.9 3379.17 2724.49 3475.05 2690.11 3572.16L2690.12 3572.15Z" fill="#73C9C3"/>
<path d="M4415.5 2453.16C4358.25 2465.54 4286.63 2439.73 4214.99 2380.9L4152.58 2329.64L4145.46 2384.35C4139.46 2430.39 4131.57 2443.97 4095.71 2469.93C4045.08 2506.6 4006.12 2509.43 3952.95 2480.31C3912.27 2458.04 3795.66 2345.05 3696.7 2232.03C3640.03 2167.29 3639.18 2166.84 3611.44 2186.93C3580.33 2209.46 3529.95 2205.87 3487.67 2178.13C3444.88 2150.05 3083.47 1727.61 3054.69 1672.04C3019.91 1604.88 3023.56 1551.59 3065.03 1521.56C3082.95 1508.58 3103.43 1500.38 3110.58 1503.31C3117.71 1506.25 3128.08 1505.38 3133.63 1501.36C3140.29 1496.53 3125.07 1473.1 3088.67 1432.11C2965.82 1293.95 2951.9 1149.47 3061.27 1147.75C3090.78 1147.28 3090.33 1145.34 3039.81 1053.78C2976.94 939.838 2967.69 889.618 2999.86 836.939C3033.01 782.676 3081.49 762.424 3169.35 766.154C3250.74 769.607 3333.35 804.854 3420.41 873.273C3502.71 937.962 3565.36 967.701 3586.72 952.236C3634.33 917.757 3754.92 961.176 3844.97 1045.22C3971.18 1163.01 4305.16 1569.61 4352.87 1663.56C4387.19 1731.12 4390.69 1868.14 4358.89 1898.83C4340.14 1916.93 4342.64 1923.24 4410.25 2028.49C4553.48 2251.44 4555.6 2422.84 4415.53 2453.13L4415.5 2453.16Z" fill="#ADACD4"/>
</g>
</g>
<defs>
<clipPath id="clip0_1_2">
<rect width="4999.94" height="4999.94" fill="white"/>
</clipPath>
</defs>
</svg>
