<svg width="184" height="56" viewBox="0 0 184 56" fill="none" xmlns="http://www.w3.org/2000/svg">
<g filter="url(#filter0_d_18_364)">
<mask id="path-1-outside-1_18_364" maskUnits="userSpaceOnUse" x="8" y="19" width="125" height="17" fill="black">
<rect fill="white" x="8" y="19" width="125" height="17"/>
<path d="M9.43466 20.4545H12.6591L16.9773 30.9943H17.1477L21.4659 20.4545H24.6903V35H22.1619V25.0071H22.027L18.0071 34.9574H16.1179L12.098 24.9858H11.9631V35H9.43466V20.4545ZM27.5597 35V20.4545H37.0199V22.6634H30.1946V26.6122H36.5298V28.821H30.1946V32.7912H37.0767V35H27.5597ZM52.7053 27.7273C52.7053 29.2945 52.4117 30.6368 51.8246 31.7543C51.2422 32.867 50.4467 33.7192 49.4382 34.3111C48.4344 34.9029 47.2957 35.1989 46.022 35.1989C44.7483 35.1989 43.6072 34.9029 42.5987 34.3111C41.5949 33.7145 40.7995 32.8598 40.2124 31.7472C39.63 30.6297 39.3388 29.2898 39.3388 27.7273C39.3388 26.16 39.63 24.8201 40.2124 23.7074C40.7995 22.59 41.5949 21.7353 42.5987 21.1435C43.6072 20.5516 44.7483 20.2557 46.022 20.2557C47.2957 20.2557 48.4344 20.5516 49.4382 21.1435C50.4467 21.7353 51.2422 22.59 51.8246 23.7074C52.4117 24.8201 52.7053 26.16 52.7053 27.7273ZM50.0561 27.7273C50.0561 26.6241 49.8833 25.6937 49.5376 24.9361C49.1967 24.1738 48.7232 23.5985 48.1172 23.2102C47.5111 22.8172 46.8127 22.6207 46.022 22.6207C45.2313 22.6207 44.5329 22.8172 43.9268 23.2102C43.3208 23.5985 42.8449 24.1738 42.4993 24.9361C42.1584 25.6937 41.9879 26.6241 41.9879 27.7273C41.9879 28.8305 42.1584 29.7633 42.4993 30.5256C42.8449 31.2831 43.3208 31.8584 43.9268 32.2514C44.5329 32.6397 45.2313 32.8338 46.022 32.8338C46.8127 32.8338 47.5111 32.6397 48.1172 32.2514C48.7232 31.8584 49.1967 31.2831 49.5376 30.5256C49.8833 29.7633 50.0561 28.8305 50.0561 27.7273ZM57.8864 35L53.7812 20.4545H56.6151L59.2358 31.1435H59.3707L62.169 20.4545H64.7472L67.5526 31.1506H67.6804L70.3011 20.4545H73.1349L69.0298 35H66.4304L63.5185 24.794H63.4048L60.4858 35H57.8864ZM74.962 20.4545H78.1864L82.5046 30.9943H82.6751L86.9933 20.4545H90.2177V35H87.6893V25.0071H87.5543L83.5344 34.9574H81.6452L77.6254 24.9858H77.4904V35H74.962V20.4545ZM94.9549 35H92.1424L97.2631 20.4545H100.516L105.644 35H102.831L98.9464 23.4375H98.8327L94.9549 35ZM95.0472 29.2969H102.718V31.4134H95.0472V29.2969ZM107.56 35V20.4545H113.014C114.132 20.4545 115.069 20.6487 115.827 21.0369C116.589 21.4252 117.164 21.9697 117.553 22.6705C117.946 23.3665 118.142 24.1785 118.142 25.1065C118.142 26.0393 117.943 26.849 117.545 27.5355C117.152 28.2173 116.572 28.7453 115.805 29.1193C115.038 29.4886 114.096 29.6733 112.979 29.6733H109.094V27.4858H112.624C113.277 27.4858 113.812 27.3958 114.229 27.2159C114.645 27.0312 114.953 26.7637 115.152 26.4134C115.356 26.0582 115.457 25.6226 115.457 25.1065C115.457 24.5904 115.356 24.1501 115.152 23.7855C114.948 23.4162 114.638 23.1368 114.222 22.9474C113.805 22.7533 113.268 22.6562 112.609 22.6562H110.195V35H107.56ZM115.074 28.4091L118.675 35H115.734L112.197 28.4091H115.074ZM119.928 22.6634V20.4545H131.533V22.6634H127.038V35H124.424V22.6634H119.928Z"/>
</mask>
<path d="M9.43466 20.4545H12.6591L16.9773 30.9943H17.1477L21.4659 20.4545H24.6903V35H22.1619V25.0071H22.027L18.0071 34.9574H16.1179L12.098 24.9858H11.9631V35H9.43466V20.4545ZM27.5597 35V20.4545H37.0199V22.6634H30.1946V26.6122H36.5298V28.821H30.1946V32.7912H37.0767V35H27.5597ZM52.7053 27.7273C52.7053 29.2945 52.4117 30.6368 51.8246 31.7543C51.2422 32.867 50.4467 33.7192 49.4382 34.3111C48.4344 34.9029 47.2957 35.1989 46.022 35.1989C44.7483 35.1989 43.6072 34.9029 42.5987 34.3111C41.5949 33.7145 40.7995 32.8598 40.2124 31.7472C39.63 30.6297 39.3388 29.2898 39.3388 27.7273C39.3388 26.16 39.63 24.8201 40.2124 23.7074C40.7995 22.59 41.5949 21.7353 42.5987 21.1435C43.6072 20.5516 44.7483 20.2557 46.022 20.2557C47.2957 20.2557 48.4344 20.5516 49.4382 21.1435C50.4467 21.7353 51.2422 22.59 51.8246 23.7074C52.4117 24.8201 52.7053 26.16 52.7053 27.7273ZM50.0561 27.7273C50.0561 26.6241 49.8833 25.6937 49.5376 24.9361C49.1967 24.1738 48.7232 23.5985 48.1172 23.2102C47.5111 22.8172 46.8127 22.6207 46.022 22.6207C45.2313 22.6207 44.5329 22.8172 43.9268 23.2102C43.3208 23.5985 42.8449 24.1738 42.4993 24.9361C42.1584 25.6937 41.9879 26.6241 41.9879 27.7273C41.9879 28.8305 42.1584 29.7633 42.4993 30.5256C42.8449 31.2831 43.3208 31.8584 43.9268 32.2514C44.5329 32.6397 45.2313 32.8338 46.022 32.8338C46.8127 32.8338 47.5111 32.6397 48.1172 32.2514C48.7232 31.8584 49.1967 31.2831 49.5376 30.5256C49.8833 29.7633 50.0561 28.8305 50.0561 27.7273ZM57.8864 35L53.7812 20.4545H56.6151L59.2358 31.1435H59.3707L62.169 20.4545H64.7472L67.5526 31.1506H67.6804L70.3011 20.4545H73.1349L69.0298 35H66.4304L63.5185 24.794H63.4048L60.4858 35H57.8864ZM74.962 20.4545H78.1864L82.5046 30.9943H82.6751L86.9933 20.4545H90.2177V35H87.6893V25.0071H87.5543L83.5344 34.9574H81.6452L77.6254 24.9858H77.4904V35H74.962V20.4545ZM94.9549 35H92.1424L97.2631 20.4545H100.516L105.644 35H102.831L98.9464 23.4375H98.8327L94.9549 35ZM95.0472 29.2969H102.718V31.4134H95.0472V29.2969ZM107.56 35V20.4545H113.014C114.132 20.4545 115.069 20.6487 115.827 21.0369C116.589 21.4252 117.164 21.9697 117.553 22.6705C117.946 23.3665 118.142 24.1785 118.142 25.1065C118.142 26.0393 117.943 26.849 117.545 27.5355C117.152 28.2173 116.572 28.7453 115.805 29.1193C115.038 29.4886 114.096 29.6733 112.979 29.6733H109.094V27.4858H112.624C113.277 27.4858 113.812 27.3958 114.229 27.2159C114.645 27.0312 114.953 26.7637 115.152 26.4134C115.356 26.0582 115.457 25.6226 115.457 25.1065C115.457 24.5904 115.356 24.1501 115.152 23.7855C114.948 23.4162 114.638 23.1368 114.222 22.9474C113.805 22.7533 113.268 22.6562 112.609 22.6562H110.195V35H107.56ZM115.074 28.4091L118.675 35H115.734L112.197 28.4091H115.074ZM119.928 22.6634V20.4545H131.533V22.6634H127.038V35H124.424V22.6634H119.928Z" fill="#F8F9FA"/>
<path d="M9.43466 20.4545V19.9545H8.93466V20.4545H9.43466ZM12.6591 20.4545L13.1218 20.265L12.9946 19.9545H12.6591V20.4545ZM16.9773 30.9943L16.5146 31.1839L16.6418 31.4943H16.9773V30.9943ZM17.1477 30.9943V31.4943H17.4832L17.6104 31.1839L17.1477 30.9943ZM21.4659 20.4545V19.9545H21.1304L21.0032 20.265L21.4659 20.4545ZM24.6903 20.4545H25.1903V19.9545H24.6903V20.4545ZM24.6903 35V35.5H25.1903V35H24.6903ZM22.1619 35H21.6619V35.5H22.1619V35ZM22.1619 25.0071H22.6619V24.5071H22.1619V25.0071ZM22.027 25.0071V24.5071H21.6897L21.5634 24.8198L22.027 25.0071ZM18.0071 34.9574V35.4574H18.3444L18.4707 35.1447L18.0071 34.9574ZM16.1179 34.9574L15.6542 35.1443L15.7804 35.4574H16.1179V34.9574ZM12.098 24.9858L12.5617 24.7988L12.4355 24.4858H12.098V24.9858ZM11.9631 24.9858V24.4858H11.4631V24.9858H11.9631ZM11.9631 35V35.5H12.4631V35H11.9631ZM9.43466 35H8.93466V35.5H9.43466V35ZM9.43466 20.9545H12.6591V19.9545H9.43466V20.9545ZM12.1964 20.6441L16.5146 31.1839L17.4399 30.8048L13.1218 20.265L12.1964 20.6441ZM16.9773 31.4943H17.1477V30.4943H16.9773V31.4943ZM17.6104 31.1839L21.9286 20.6441L21.0032 20.265L16.6851 30.8048L17.6104 31.1839ZM21.4659 20.9545H24.6903V19.9545H21.4659V20.9545ZM24.1903 20.4545V35H25.1903V20.4545H24.1903ZM24.6903 34.5H22.1619V35.5H24.6903V34.5ZM22.6619 35V25.0071H21.6619V35H22.6619ZM22.1619 24.5071H22.027V25.5071H22.1619V24.5071ZM21.5634 24.8198L17.5435 34.7701L18.4707 35.1447L22.4906 25.1944L21.5634 24.8198ZM18.0071 34.4574H16.1179V35.4574H18.0071V34.4574ZM16.5816 34.7704L12.5617 24.7988L11.6343 25.1727L15.6542 35.1443L16.5816 34.7704ZM12.098 24.4858H11.9631V25.4858H12.098V24.4858ZM11.4631 24.9858V35H12.4631V24.9858H11.4631ZM11.9631 34.5H9.43466V35.5H11.9631V34.5ZM9.93466 35V20.4545H8.93466V35H9.93466ZM27.5597 35H27.0597V35.5H27.5597V35ZM27.5597 20.4545V19.9545H27.0597V20.4545H27.5597ZM37.0199 20.4545H37.5199V19.9545H37.0199V20.4545ZM37.0199 22.6634V23.1634H37.5199V22.6634H37.0199ZM30.1946 22.6634V22.1634H29.6946V22.6634H30.1946ZM30.1946 26.6122H29.6946V27.1122H30.1946V26.6122ZM36.5298 26.6122H37.0298V26.1122H36.5298V26.6122ZM36.5298 28.821V29.321H37.0298V28.821H36.5298ZM30.1946 28.821V28.321H29.6946V28.821H30.1946ZM30.1946 32.7912H29.6946V33.2912H30.1946V32.7912ZM37.0767 32.7912H37.5767V32.2912H37.0767V32.7912ZM37.0767 35V35.5H37.5767V35H37.0767ZM28.0597 35V20.4545H27.0597V35H28.0597ZM27.5597 20.9545H37.0199V19.9545H27.5597V20.9545ZM36.5199 20.4545V22.6634H37.5199V20.4545H36.5199ZM37.0199 22.1634H30.1946V23.1634H37.0199V22.1634ZM29.6946 22.6634V26.6122H30.6946V22.6634H29.6946ZM30.1946 27.1122H36.5298V26.1122H30.1946V27.1122ZM36.0298 26.6122V28.821H37.0298V26.6122H36.0298ZM36.5298 28.321H30.1946V29.321H36.5298V28.321ZM29.6946 28.821V32.7912H30.6946V28.821H29.6946ZM30.1946 33.2912H37.0767V32.2912H30.1946V33.2912ZM36.5767 32.7912V35H37.5767V32.7912H36.5767ZM37.0767 34.5H27.5597V35.5H37.0767V34.5ZM51.8246 31.7543L51.382 31.5217L51.3816 31.5224L51.8246 31.7543ZM49.4382 34.3111L49.1851 33.8799L49.1843 33.8804L49.4382 34.3111ZM42.5987 34.3111L42.3433 34.7409L42.3457 34.7423L42.5987 34.3111ZM40.2124 31.7472L39.769 31.9783L39.7701 31.9805L40.2124 31.7472ZM40.2124 23.7074L39.7697 23.4748L39.7694 23.4755L40.2124 23.7074ZM42.5987 21.1435L42.3457 20.7122L42.3448 20.7128L42.5987 21.1435ZM49.4382 21.1435L49.1843 21.5742L49.1851 21.5747L49.4382 21.1435ZM51.8246 23.7074L51.3812 23.9385L51.3824 23.9407L51.8246 23.7074ZM49.5376 24.9361L49.0812 25.1402L49.0828 25.1436L49.5376 24.9361ZM48.1172 23.2102L47.8452 23.6298L47.8475 23.6312L48.1172 23.2102ZM43.9268 23.2102L44.1966 23.6313L44.1989 23.6297L43.9268 23.2102ZM42.4993 24.9361L42.0439 24.7296L42.0433 24.7309L42.4993 24.9361ZM42.4993 30.5256L42.0428 30.7297L42.0444 30.7331L42.4993 30.5256ZM43.9268 32.2514L43.6548 32.6709L43.6571 32.6724L43.9268 32.2514ZM48.1172 32.2514L48.3869 32.6724L48.3892 32.6709L48.1172 32.2514ZM49.5376 30.5256L49.0823 30.3191L49.0817 30.3204L49.5376 30.5256ZM52.2053 27.7273C52.2053 29.2327 51.9234 30.4913 51.382 31.5217L52.2672 31.9868C52.9 30.7824 53.2053 29.3563 53.2053 27.7273H52.2053ZM51.3816 31.5224C50.8393 32.5586 50.1069 33.3389 49.1851 33.8799L49.6913 34.7423C50.7865 34.0996 51.6451 33.1753 52.2676 31.9861L51.3816 31.5224ZM49.1843 33.8804C48.2645 34.4227 47.2149 34.6989 46.022 34.6989V35.6989C47.3764 35.6989 48.6044 35.3832 49.6922 34.7418L49.1843 33.8804ZM46.022 34.6989C44.8291 34.6989 43.7768 34.4227 42.8518 33.8799L42.3457 34.7423C43.4377 35.3832 44.6676 35.6989 46.022 35.6989V34.6989ZM42.8542 33.8813C41.9357 33.3354 41.2022 32.5516 40.6546 31.5138L39.7701 31.9805C40.3968 33.1681 41.2542 34.0936 42.3433 34.7409L42.8542 33.8813ZM40.6558 31.5161C40.1184 30.4851 39.8388 29.2283 39.8388 27.7273H38.8388C38.8388 29.3513 39.1415 30.7744 39.769 31.9782L40.6558 31.5161ZM39.8388 27.7273C39.8388 26.2212 40.1186 24.9648 40.6553 23.9392L39.7694 23.4755C39.1414 24.6753 38.8388 26.0989 38.8388 27.7273H39.8388ZM40.655 23.94C41.2026 22.8977 41.9356 22.1149 42.8527 21.5742L42.3448 20.7128C41.2542 21.3558 40.3964 22.2822 39.7697 23.4748L40.655 23.94ZM42.8518 21.5747C43.7768 21.0318 44.8291 20.7557 46.022 20.7557V19.7557C44.6676 19.7557 43.4377 20.0714 42.3457 20.7122L42.8518 21.5747ZM46.022 20.7557C47.2149 20.7557 48.2645 21.0318 49.1843 21.5742L49.6922 20.7128C48.6044 20.0714 47.3764 19.7557 46.022 19.7557V20.7557ZM49.1851 21.5747C50.1064 22.1153 50.8387 22.8976 51.3812 23.9385L52.268 23.4763C51.6457 22.2823 50.7871 21.3553 49.6913 20.7122L49.1851 21.5747ZM51.3824 23.9407C51.9233 24.9659 52.2053 26.2217 52.2053 27.7273H53.2053C53.2053 26.0983 52.9001 24.6742 52.2668 23.474L51.3824 23.9407ZM50.5561 27.7273C50.5561 26.5746 50.3759 25.5688 49.9925 24.7285L49.0828 25.1436C49.3907 25.8185 49.5561 26.6735 49.5561 27.7273H50.5561ZM49.9941 24.732C49.6199 23.8953 49.0875 23.238 48.3869 22.7892L47.8475 23.6312C48.359 23.9589 48.7736 24.4523 49.0812 25.1402L49.9941 24.732ZM48.3892 22.7907C47.6945 22.3402 46.8998 22.1207 46.022 22.1207V23.1207C46.7257 23.1207 47.3277 23.2942 47.8452 23.6297L48.3892 22.7907ZM46.022 22.1207C45.1443 22.1207 44.3495 22.3402 43.6548 22.7907L44.1989 23.6297C44.7163 23.2942 45.3183 23.1207 46.022 23.1207V22.1207ZM43.6571 22.7892C42.9572 23.2376 42.4228 23.894 42.0439 24.7296L42.9547 25.1426C43.2671 24.4535 43.6844 23.9594 44.1966 23.6312L43.6571 22.7892ZM42.0433 24.7309C41.6655 25.5705 41.4879 26.5754 41.4879 27.7273H42.4879C42.4879 26.6727 42.6512 25.8169 42.9553 25.1413L42.0433 24.7309ZM41.4879 27.7273C41.4879 28.8793 41.6656 29.8861 42.0429 30.7297L42.9557 30.3214C42.6512 29.6404 42.4879 28.7817 42.4879 27.7273H41.4879ZM42.0444 30.7331C42.4234 31.5638 42.9572 32.2186 43.6548 32.6709L44.1989 31.8319C43.6843 31.4983 43.2665 31.0025 42.9542 30.318L42.0444 30.7331ZM43.6571 32.6724C44.3516 33.1173 45.1455 33.3338 46.022 33.3338V32.3338C45.3171 32.3338 44.7143 32.1621 44.1966 31.8304L43.6571 32.6724ZM46.022 33.3338C46.8986 33.3338 47.6925 33.1173 48.3869 32.6724L47.8475 31.8304C47.3298 32.1621 46.7269 32.3338 46.022 32.3338V33.3338ZM48.3892 32.6709C49.0875 32.2182 49.6193 31.5625 49.9936 30.7308L49.0817 30.3204C48.7741 31.0038 48.359 31.4987 47.8452 31.8319L48.3892 32.6709ZM49.993 30.732C50.3758 29.8877 50.5561 28.8801 50.5561 27.7273H49.5561C49.5561 28.7809 49.3907 29.6388 49.0823 30.3191L49.993 30.732ZM57.8864 35L57.4052 35.1358L57.5079 35.5H57.8864V35ZM53.7812 20.4545V19.9545H53.1206L53.3 20.5904L53.7812 20.4545ZM56.6151 20.4545L57.1007 20.3355L57.0073 19.9545H56.6151V20.4545ZM59.2358 31.1435L58.7502 31.2625L58.8436 31.6435H59.2358V31.1435ZM59.3707 31.1435V31.6435H59.7567L59.8544 31.2701L59.3707 31.1435ZM62.169 20.4545V19.9545H61.7831L61.6853 20.3279L62.169 20.4545ZM64.7472 20.4545L65.2308 20.3277L65.1329 19.9545H64.7472V20.4545ZM67.5526 31.1506L67.0689 31.2774L67.1668 31.6506H67.5526V31.1506ZM67.6804 31.1506V31.6506H68.0727L68.166 31.2696L67.6804 31.1506ZM70.3011 20.4545V19.9545H69.9089L69.8155 20.3356L70.3011 20.4545ZM73.1349 20.4545L73.6161 20.5904L73.7956 19.9545H73.1349V20.4545ZM69.0298 35V35.5H69.4082L69.511 35.1358L69.0298 35ZM66.4304 35L65.9496 35.1372L66.0531 35.5H66.4304V35ZM63.5185 24.794L63.9993 24.6568L63.8958 24.294H63.5185V24.794ZM63.4048 24.794V24.294H63.0278L62.9241 24.6565L63.4048 24.794ZM60.4858 35V35.5H60.8628L60.9665 35.1375L60.4858 35ZM58.3676 34.8642L54.2625 20.3187L53.3 20.5904L57.4052 35.1358L58.3676 34.8642ZM53.7812 20.9545H56.6151V19.9545H53.7812V20.9545ZM56.1294 20.5736L58.7502 31.2625L59.7214 31.0244L57.1007 20.3355L56.1294 20.5736ZM59.2358 31.6435H59.3707V30.6435H59.2358V31.6435ZM59.8544 31.2701L62.6527 20.5812L61.6853 20.3279L58.887 31.0168L59.8544 31.2701ZM62.169 20.9545H64.7472V19.9545H62.169V20.9545ZM64.2635 20.5814L67.0689 31.2774L68.0362 31.0237L65.2308 20.3277L64.2635 20.5814ZM67.5526 31.6506H67.6804V30.6506H67.5526V31.6506ZM68.166 31.2696L70.7868 20.5735L69.8155 20.3356L67.1948 31.0316L68.166 31.2696ZM70.3011 20.9545H73.1349V19.9545H70.3011V20.9545ZM72.6537 20.3187L68.5486 34.8642L69.511 35.1358L73.6161 20.5904L72.6537 20.3187ZM69.0298 34.5H66.4304V35.5H69.0298V34.5ZM66.9112 34.8628L63.9993 24.6568L63.0377 24.9312L65.9496 35.1372L66.9112 34.8628ZM63.5185 24.294H63.4048V25.294H63.5185V24.294ZM62.9241 24.6565L60.0051 34.8625L60.9665 35.1375L63.8856 24.9315L62.9241 24.6565ZM60.4858 34.5H57.8864V35.5H60.4858V34.5ZM74.962 20.4545V19.9545H74.462V20.4545H74.962ZM78.1864 20.4545L78.6491 20.265L78.5219 19.9545H78.1864V20.4545ZM82.5046 30.9943L82.0419 31.1839L82.1691 31.4943H82.5046V30.9943ZM82.6751 30.9943V31.4943H83.0106L83.1377 31.1839L82.6751 30.9943ZM86.9933 20.4545V19.9545H86.6578L86.5306 20.265L86.9933 20.4545ZM90.2177 20.4545H90.7177V19.9545H90.2177V20.4545ZM90.2177 35V35.5H90.7177V35H90.2177ZM87.6893 35H87.1893V35.5H87.6893V35ZM87.6893 25.0071H88.1893V24.5071H87.6893V25.0071ZM87.5543 25.0071V24.5071H87.2171L87.0907 24.8198L87.5543 25.0071ZM83.5344 34.9574V35.4574H83.8717L83.998 35.1447L83.5344 34.9574ZM81.6452 34.9574L81.1815 35.1443L81.3077 35.4574H81.6452V34.9574ZM77.6254 24.9858L78.0891 24.7988L77.9629 24.4858H77.6254V24.9858ZM77.4904 24.9858V24.4858H76.9904V24.9858H77.4904ZM77.4904 35V35.5H77.9904V35H77.4904ZM74.962 35H74.462V35.5H74.962V35ZM74.962 20.9545H78.1864V19.9545H74.962V20.9545ZM77.7238 20.6441L82.0419 31.1839L82.9673 30.8048L78.6491 20.265L77.7238 20.6441ZM82.5046 31.4943H82.6751V30.4943H82.5046V31.4943ZM83.1377 31.1839L87.4559 20.6441L86.5306 20.265L82.2124 30.8048L83.1377 31.1839ZM86.9933 20.9545H90.2177V19.9545H86.9933V20.9545ZM89.7177 20.4545V35H90.7177V20.4545H89.7177ZM90.2177 34.5H87.6893V35.5H90.2177V34.5ZM88.1893 35V25.0071H87.1893V35H88.1893ZM87.6893 24.5071H87.5543V25.5071H87.6893V24.5071ZM87.0907 24.8198L83.0708 34.7701L83.998 35.1447L88.0179 25.1944L87.0907 24.8198ZM83.5344 34.4574H81.6452V35.4574H83.5344V34.4574ZM82.109 34.7704L78.0891 24.7988L77.1616 25.1727L81.1815 35.1443L82.109 34.7704ZM77.6254 24.4858H77.4904V25.4858H77.6254V24.4858ZM76.9904 24.9858V35H77.9904V24.9858H76.9904ZM77.4904 34.5H74.962V35.5H77.4904V34.5ZM75.462 35V20.4545H74.462V35H75.462ZM94.9549 35V35.5H95.3146L95.429 35.159L94.9549 35ZM92.1424 35L91.6708 34.834L91.4363 35.5H92.1424V35ZM97.2631 20.4545V19.9545H96.9091L96.7915 20.2885L97.2631 20.4545ZM100.516 20.4545L100.988 20.2883L100.87 19.9545H100.516V20.4545ZM105.644 35V35.5H106.35L106.115 34.8338L105.644 35ZM102.831 35L102.357 35.1592L102.472 35.5H102.831V35ZM98.9464 23.4375L99.4203 23.2783L99.3058 22.9375H98.9464V23.4375ZM98.8327 23.4375V22.9375H98.4731L98.3587 23.2785L98.8327 23.4375ZM95.0472 29.2969V28.7969H94.5472V29.2969H95.0472ZM102.718 29.2969H103.218V28.7969H102.718V29.2969ZM102.718 31.4134V31.9134H103.218V31.4134H102.718ZM95.0472 31.4134H94.5472V31.9134H95.0472V31.4134ZM94.9549 34.5H92.1424V35.5H94.9549V34.5ZM92.614 35.166L97.7348 20.6206L96.7915 20.2885L91.6708 34.834L92.614 35.166ZM97.2631 20.9545H100.516V19.9545H97.2631V20.9545ZM100.044 20.6208L105.172 35.1662L106.115 34.8338L100.988 20.2883L100.044 20.6208ZM105.644 34.5H102.831V35.5H105.644V34.5ZM103.305 34.8408L99.4203 23.2783L98.4724 23.5967L102.357 35.1592L103.305 34.8408ZM98.9464 22.9375H98.8327V23.9375H98.9464V22.9375ZM98.3587 23.2785L94.4809 34.841L95.429 35.159L99.3068 23.5965L98.3587 23.2785ZM95.0472 29.7969H102.718V28.7969H95.0472V29.7969ZM102.218 29.2969V31.4134H103.218V29.2969H102.218ZM102.718 30.9134H95.0472V31.9134H102.718V30.9134ZM95.5472 31.4134V29.2969H94.5472V31.4134H95.5472ZM107.56 35H107.06V35.5H107.56V35ZM107.56 20.4545V19.9545H107.06V20.4545H107.56ZM115.827 21.0369L115.599 21.4819L115.6 21.4825L115.827 21.0369ZM117.553 22.6705L117.115 22.9128L117.117 22.9163L117.553 22.6705ZM117.545 27.5355L117.113 27.2849L117.112 27.2858L117.545 27.5355ZM115.805 29.1193L116.022 29.5698L116.025 29.5687L115.805 29.1193ZM109.094 29.6733H108.594V30.1733H109.094V29.6733ZM109.094 27.4858V26.9858H108.594V27.4858H109.094ZM114.229 27.2159L114.427 27.675L114.431 27.673L114.229 27.2159ZM115.152 26.4134L114.718 26.1647L114.717 26.1665L115.152 26.4134ZM115.152 23.7855L114.714 24.0269L114.715 24.0293L115.152 23.7855ZM114.222 22.9474L114.01 23.4007L114.015 23.4026L114.222 22.9474ZM110.195 22.6562V22.1562H109.695V22.6562H110.195ZM110.195 35V35.5H110.695V35H110.195ZM115.074 28.4091L115.513 28.1694L115.37 27.9091H115.074V28.4091ZM118.675 35V35.5H119.518L119.114 34.7603L118.675 35ZM115.734 35L115.294 35.2364L115.435 35.5H115.734V35ZM112.197 28.4091V27.9091H111.362L111.757 28.6455L112.197 28.4091ZM108.06 35V20.4545H107.06V35H108.06ZM107.56 20.9545H113.014V19.9545H107.56V20.9545ZM113.014 20.9545C114.076 20.9545 114.93 21.1393 115.599 21.4819L116.055 20.592C115.208 20.158 114.187 19.9545 113.014 19.9545V20.9545ZM115.6 21.4825C116.28 21.8287 116.779 22.3052 117.115 22.9128L117.99 22.4281C117.55 21.6342 116.898 21.0217 116.054 20.5914L115.6 21.4825ZM117.117 22.9163C117.461 23.526 117.642 24.2506 117.642 25.1065H118.642C118.642 24.1064 118.43 23.207 117.988 22.4246L117.117 22.9163ZM117.642 25.1065C117.642 25.9669 117.459 26.6869 117.113 27.2849L117.978 27.7861C118.427 27.011 118.642 26.1117 118.642 25.1065H117.642ZM117.112 27.2858C116.773 27.8739 116.272 28.3357 115.586 28.6699L116.025 29.5687C116.873 29.1548 117.532 28.5608 117.979 27.7852L117.112 27.2858ZM115.588 28.6688C114.907 28.997 114.044 29.1733 112.979 29.1733V30.1733C114.149 30.1733 115.17 29.9802 116.022 29.5698L115.588 28.6688ZM112.979 29.1733H109.094V30.1733H112.979V29.1733ZM109.594 29.6733V27.4858H108.594V29.6733H109.594ZM109.094 27.9858H112.624V26.9858H109.094V27.9858ZM112.624 27.9858C113.318 27.9858 113.926 27.891 114.427 27.6749L114.03 26.7569C113.698 26.9006 113.236 26.9858 112.624 26.9858V27.9858ZM114.431 27.673C114.932 27.4509 115.328 27.1157 115.587 26.6602L114.717 26.1665C114.578 26.4117 114.358 26.6116 114.026 26.7588L114.431 27.673ZM115.586 26.662C115.843 26.2139 115.957 25.6875 115.957 25.1065H114.957C114.957 25.5578 114.868 25.9026 114.718 26.1647L115.586 26.662ZM115.957 25.1065C115.957 24.525 115.842 23.9965 115.589 23.5417L114.715 24.0293C114.869 24.3037 114.957 24.6559 114.957 25.1065H115.957ZM115.59 23.5441C115.33 23.0724 114.934 22.7222 114.428 22.4923L114.015 23.4026C114.342 23.5515 114.567 23.76 114.714 24.0269L115.59 23.5441ZM114.433 22.4942C113.928 22.259 113.311 22.1562 112.609 22.1562V23.1562C113.224 23.1562 113.682 23.2477 114.01 23.4007L114.433 22.4942ZM112.609 22.1562H110.195V23.1562H112.609V22.1562ZM109.695 22.6562V35H110.695V22.6562H109.695ZM110.195 34.5H107.56V35.5H110.195V34.5ZM114.635 28.6488L118.236 35.2397L119.114 34.7603L115.513 28.1694L114.635 28.6488ZM118.675 34.5H115.734V35.5H118.675V34.5ZM116.175 34.7636L112.638 28.1727L111.757 28.6455L115.294 35.2364L116.175 34.7636ZM112.197 28.9091H115.074V27.9091H112.197V28.9091ZM119.928 22.6634H119.428V23.1634H119.928V22.6634ZM119.928 20.4545V19.9545H119.428V20.4545H119.928ZM131.533 20.4545H132.033V19.9545H131.533V20.4545ZM131.533 22.6634V23.1634H132.033V22.6634H131.533ZM127.038 22.6634V22.1634H126.538V22.6634H127.038ZM127.038 35V35.5H127.538V35H127.038ZM124.424 35H123.924V35.5H124.424V35ZM124.424 22.6634H124.924V22.1634H124.424V22.6634ZM120.428 22.6634V20.4545H119.428V22.6634H120.428ZM119.928 20.9545H131.533V19.9545H119.928V20.9545ZM131.033 20.4545V22.6634H132.033V20.4545H131.033ZM131.533 22.1634H127.038V23.1634H131.533V22.1634ZM126.538 22.6634V35H127.538V22.6634H126.538ZM127.038 34.5H124.424V35.5H127.038V34.5ZM124.924 35V22.6634H123.924V35H124.924ZM124.424 22.1634H119.928V23.1634H124.424V22.1634Z" fill="black" mask="url(#path-1-outside-1_18_364)"/>
</g>
<path d="M153.926 12.1032C153.153 12.1184 152.261 12.6564 152.097 12.8517L152.059 12.888C151.049 13.8862 151.049 15.5173 152.059 16.5155L156.382 20.7907C156.485 20.8919 156.649 20.8919 156.752 20.7907L161.077 16.5155C162.087 15.5173 162.087 13.8862 161.077 12.888L161.039 12.8517C160.029 11.8535 158.389 11.8535 157.379 12.8517L156.567 13.6537L155.757 12.8517C155.252 12.3527 154.588 12.1032 153.926 12.1032H153.926ZM159.011 12.6351C158.978 12.6385 158.945 12.6419 158.913 12.6469C158.88 12.6511 158.848 12.657 158.815 12.6631C158.782 12.6691 158.75 12.6766 158.718 12.6844C158.685 12.692 158.653 12.7003 158.621 12.7097C158.589 12.7192 158.557 12.7296 158.526 12.7404C158.494 12.7514 158.463 12.7627 158.432 12.7753C158.494 12.7504 158.557 12.7285 158.621 12.7097C158.685 12.691 158.75 12.6755 158.815 12.6632C158.88 12.6506 158.945 12.6414 159.011 12.6352V12.6351ZM159.407 12.6351C159.473 12.641 159.538 12.6506 159.603 12.6631C159.668 12.6755 159.733 12.691 159.797 12.7096C159.861 12.7283 159.924 12.7502 159.986 12.7752C159.955 12.7628 159.924 12.7513 159.892 12.7403C159.861 12.7294 159.829 12.7189 159.797 12.7096C159.733 12.6909 159.668 12.6755 159.603 12.6631C159.538 12.6506 159.473 12.6414 159.407 12.6351ZM153.149 12.7757C153.118 12.7882 153.088 12.8015 153.057 12.8155C153.026 12.8295 152.996 12.8442 152.966 12.8599C153.026 12.8287 153.087 12.8006 153.149 12.7757ZM154.703 12.7757C154.766 12.8006 154.827 12.8288 154.887 12.8599C154.826 12.8288 154.766 12.8006 154.703 12.7757ZM152.428 13.262H152.429C152.424 13.2671 152.419 13.2724 152.414 13.2774C152.419 13.2723 152.423 13.267 152.428 13.262H152.428ZM152.303 13.3977C152.29 13.4131 152.277 13.4286 152.265 13.4442C152.277 13.4286 152.29 13.4131 152.303 13.3977ZM152.059 13.7559C152.012 13.8446 151.972 13.9363 151.938 14.0296C151.972 13.9363 152.012 13.8446 152.059 13.7559ZM151.908 14.1232C151.879 14.2176 151.858 14.3136 151.844 14.4104C151.834 14.4749 151.828 14.5399 151.825 14.6049C151.828 14.54 151.834 14.4749 151.844 14.4104C151.858 14.3136 151.879 14.2176 151.908 14.1232ZM151.825 14.8066C151.827 14.837 151.829 14.8674 151.832 14.8976C151.835 14.93 151.839 14.9621 151.844 14.9944C151.853 15.0588 151.866 15.1235 151.882 15.187C151.889 15.2188 151.898 15.25 151.908 15.2816C151.879 15.1872 151.858 15.0911 151.844 14.9944C151.835 14.932 151.828 14.8694 151.825 14.8066ZM151.974 15.4684C151.999 15.5298 152.028 15.5897 152.059 15.6488C152.028 15.5898 151.999 15.5295 151.974 15.4684ZM152.272 15.97C152.281 15.9807 152.29 15.991 152.298 16.0017C152.29 15.9912 152.281 15.9807 152.272 15.97ZM152.088 20.3495V20.35C152.081 20.3496 152.074 20.3508 152.069 20.3534C151.957 20.4175 152.065 21.0913 152.175 21.6796C152.184 21.6709 152.193 21.6628 152.203 21.6543C152.227 21.6319 152.252 21.6107 152.278 21.5905C152.343 21.5402 152.416 21.4966 152.495 21.4611C152.591 21.4186 152.687 21.3869 152.784 21.3648C152.825 21.3553 152.867 21.3478 152.909 21.3418C152.867 21.3477 152.825 21.3553 152.784 21.3648C152.687 21.3869 152.591 21.419 152.495 21.4616C152.416 21.4971 152.344 21.5402 152.278 21.5905C152.252 21.6107 152.227 21.632 152.203 21.6543C151.901 21.9324 151.759 22.3714 151.689 22.8362C151.599 23.4311 151.624 24.1231 151.689 24.7916C151.8 25.924 152.036 26.9825 152.106 27.2825C151.784 27.8886 151.501 28.5196 151.274 29.1628C150.865 30.3234 150.462 32.6494 150.058 35.5469C149.654 38.4444 149.261 41.8912 148.916 45.202C148.431 49.8536 148.073 53.8711 147.89 55.9973H148.538V55.9977H163.46V55.9973H164.109C163.924 54.4996 163.666 52.2876 163.438 49.8253C163.24 47.6981 163.074 45.4576 163.018 43.527C162.962 41.5968 163.028 39.9604 163.251 39.1271C163.588 37.8685 164.242 36.6529 164.843 35.4715C165.443 34.29 165.998 33.1417 166.078 31.97C166.127 31.2432 165.958 30.7016 165.635 30.348C165.311 29.9944 164.869 29.8558 164.46 29.8165C163.945 29.7671 163.755 29.8715 163.454 29.9504C163.553 29.744 163.618 29.6999 163.689 29.3493C163.826 28.6721 163.775 27.7515 163.056 26.9615C162.322 26.1551 161.344 26.1487 160.63 26.3481C160.4 26.4122 160.41 26.4526 160.23 26.5368C160.386 26.2309 160.468 26.154 160.622 25.681C160.774 25.2154 160.89 24.702 160.878 24.1946C160.866 23.7041 160.726 23.2064 160.365 22.8232C160.677 22.2698 161.078 21.5315 160.983 21.4246C160.976 21.4151 160.961 21.4112 160.941 21.4125C160.749 21.424 160.057 21.9226 159.607 22.2615C159.235 22.0755 158.832 21.9842 158.42 21.9797C158.259 21.978 158.097 21.9893 157.935 22.0132C157.213 22.1195 156.482 22.4574 155.769 22.954C155.587 22.7381 155.272 22.391 154.88 22.0729C154.567 21.8183 154.202 21.5769 153.797 21.4374H153.796C153.518 21.3418 153.215 21.297 152.911 21.341C152.92 21.3393 152.929 21.3385 152.939 21.3368C152.615 20.8801 152.217 20.3548 152.088 20.3489L152.088 20.3495ZM152.635 22.1357H152.636C152.628 22.1434 152.62 22.1521 152.612 22.1611C152.62 22.1523 152.627 22.1436 152.635 22.1357H152.635ZM152.595 22.1818C152.588 22.191 152.58 22.2004 152.573 22.2104C152.58 22.2004 152.587 22.1909 152.595 22.1818ZM152.571 22.2131C152.564 22.2231 152.557 22.2336 152.55 22.2444C152.557 22.2335 152.564 22.2232 152.571 22.2131ZM152.507 22.3171C152.501 22.329 152.495 22.3412 152.489 22.3537C152.495 22.3412 152.501 22.329 152.507 22.3171ZM152.454 22.4302C152.448 22.4484 152.44 22.4673 152.433 22.4868C152.44 22.4673 152.447 22.4485 152.454 22.4302ZM160.031 22.5261C160.051 22.5415 160.072 22.5571 160.092 22.573C160.072 22.557 160.051 22.5414 160.031 22.5261ZM160.12 22.5958C160.147 22.6181 160.174 22.6415 160.201 22.665C160.174 22.6414 160.147 22.6182 160.12 22.5958ZM158.416 22.6206C158.477 22.6206 158.537 22.6232 158.596 22.6283C158.537 22.624 158.477 22.6206 158.416 22.6206ZM158.416 22.6206V22.6211C158.357 22.6211 158.297 22.6236 158.237 22.6279C158.297 22.6237 158.357 22.6203 158.416 22.6203V22.6206ZM158.213 22.6303C158.152 22.6354 158.091 22.6421 158.029 22.6511C157.721 22.6965 157.395 22.798 157.06 22.9501C157.395 22.798 157.721 22.6961 158.029 22.6506C158.091 22.6415 158.152 22.6352 158.213 22.6303V22.6303ZM158.631 22.6311C158.689 22.6362 158.746 22.6445 158.803 22.6551C158.746 22.6445 158.689 22.6367 158.631 22.6311ZM152.387 22.6328C152.381 22.6545 152.375 22.6768 152.37 22.6997C152.375 22.6768 152.382 22.6546 152.387 22.6328ZM158.85 22.6654C158.869 22.6696 158.888 22.673 158.907 22.6776C158.889 22.6733 158.869 22.6699 158.85 22.6654ZM160.231 22.693C160.261 22.7198 160.29 22.7473 160.319 22.7758C160.29 22.7474 160.261 22.7198 160.231 22.693ZM159.004 22.7039C159.023 22.7098 159.042 22.716 159.062 22.7224C159.042 22.7165 159.023 22.7097 159.004 22.7039ZM152.364 22.7233C152.36 22.7434 152.356 22.7635 152.351 22.7845C152.356 22.7636 152.36 22.7434 152.364 22.7233ZM159.105 22.7373C159.124 22.7441 159.143 22.7518 159.163 22.7594C159.144 22.7517 159.124 22.7443 159.105 22.7373ZM159.212 22.7798C159.228 22.7866 159.245 22.7942 159.261 22.8019C159.245 22.7943 159.228 22.7869 159.212 22.7798ZM159.313 22.8278C159.329 22.8365 159.346 22.8441 159.363 22.8531C159.346 22.844 159.329 22.8363 159.313 22.8278ZM152.34 22.8408C152.335 22.8706 152.33 22.9013 152.325 22.9327C152.316 22.9924 152.308 23.054 152.302 23.1177C152.308 23.0542 152.316 22.9922 152.325 22.9327C152.329 22.9012 152.335 22.8706 152.34 22.8408H152.34ZM159.453 22.9055C159.469 22.9156 159.486 22.9264 159.502 22.9372C159.486 22.9265 159.469 22.9157 159.453 22.9055ZM159.551 22.9697C159.568 22.9813 159.584 22.9933 159.601 23.0055C159.584 22.9933 159.568 22.9814 159.551 22.9697ZM156.916 23.0185C156.723 23.1136 156.528 23.2247 156.332 23.351C156.528 23.2246 156.723 23.1136 156.916 23.0185ZM159.638 23.0335C159.658 23.0486 159.677 23.064 159.697 23.08C159.677 23.0639 159.658 23.0486 159.638 23.0335ZM159.743 23.1199C159.756 23.131 159.769 23.1418 159.781 23.1534C159.769 23.1419 159.756 23.131 159.743 23.1199ZM155.137 23.2113C155.155 23.231 155.171 23.2497 155.188 23.2682C155.196 23.2781 155.205 23.2883 155.213 23.2977C155.206 23.2881 155.196 23.278 155.188 23.2682C155.172 23.2501 155.154 23.2305 155.137 23.2113ZM159.843 23.2121C159.854 23.2219 159.864 23.2307 159.874 23.2406V23.2411C159.864 23.2309 159.854 23.2219 159.843 23.2121ZM152.277 23.555C152.275 23.6286 152.275 23.7038 152.275 23.7798C152.275 23.8564 152.277 23.9338 152.28 24.0123C152.282 24.0888 152.286 24.1663 152.29 24.2439C152.286 24.1661 152.283 24.0889 152.28 24.0123C152.277 23.9338 152.276 23.8564 152.275 23.7798C152.274 23.7036 152.274 23.6287 152.277 23.555ZM152.291 24.2565C152.294 24.296 152.297 24.3354 152.299 24.375C152.301 24.4045 152.303 24.4342 152.305 24.4637C152.3 24.3946 152.295 24.3253 152.291 24.2565H152.291ZM152.315 24.5754C152.316 24.5972 152.318 24.6187 152.321 24.6405C152.323 24.67 152.327 24.6996 152.329 24.7291C152.333 24.7671 152.337 24.8049 152.341 24.8426C152.337 24.8047 152.332 24.7671 152.329 24.7291C152.326 24.6997 152.324 24.6699 152.321 24.6405C152.32 24.6188 152.317 24.597 152.315 24.5754H152.315ZM152.342 24.8545C152.349 24.9275 152.358 25.0003 152.367 25.0725C152.358 25.0003 152.35 24.9277 152.342 24.8545ZM152.404 25.3597C152.424 25.4989 152.444 25.6351 152.465 25.7659C152.506 26.0157 152.548 26.2469 152.587 26.4485C152.548 26.2472 152.506 26.0153 152.465 25.7659C152.444 25.6348 152.424 25.4992 152.404 25.3597ZM161.476 26.8728C161.514 26.8736 161.552 26.8762 161.59 26.8796C161.514 26.8727 161.438 26.8708 161.362 26.8744C161.4 26.8728 161.438 26.8719 161.476 26.8728ZM161.249 26.8819C161.174 26.8895 161.099 26.901 161.024 26.9159C161.099 26.9011 161.174 26.8894 161.249 26.8819ZM161.817 26.9186C162.042 26.976 162.265 27.0919 162.476 27.2908C162.265 27.092 162.042 26.976 161.817 26.9186ZM162.844 27.75C162.867 27.7892 162.889 27.8283 162.909 27.8676C162.896 27.8432 162.882 27.8191 162.868 27.7948C162.859 27.78 162.853 27.7649 162.844 27.75ZM163.705 30.4897C163.562 30.5116 163.432 30.5396 163.328 30.5652C163.432 30.5395 163.562 30.5115 163.705 30.4897ZM164.622 30.4956C164.694 30.5118 164.762 30.5328 164.827 30.5589C164.956 30.6113 165.069 30.6851 165.16 30.785V30.7855C165.183 30.8104 165.205 30.8372 165.226 30.8664C165.205 30.8372 165.183 30.8108 165.16 30.7859V30.7855C165.069 30.6855 164.956 30.6115 164.827 30.5589C164.762 30.5326 164.694 30.5119 164.622 30.4956ZM165.226 30.867C165.229 30.8704 165.231 30.8746 165.234 30.8791C165.232 30.8766 165.23 30.874 165.229 30.8715C165.228 30.8698 165.227 30.8681 165.226 30.8672L165.226 30.867ZM165.334 31.0637C165.336 31.0672 165.337 31.0697 165.338 31.0733C165.337 31.0717 165.336 31.0699 165.336 31.0682C165.335 31.0666 165.335 31.0657 165.334 31.064L165.334 31.0637ZM165.435 31.9277C165.426 32.0518 165.411 32.1773 165.39 32.3044C165.411 32.1773 165.427 32.0518 165.435 31.9277Z" fill="#F89A41"/>
<path d="M157.124 22.1659V22.1664C156.996 22.1664 156.866 22.1769 156.732 22.1966C156.017 22.302 155.209 22.7049 154.415 23.3351C152.826 24.5955 151.297 26.7507 150.499 29.0141C150.133 30.0532 149.706 32.4344 149.299 35.3588C148.891 38.2831 148.492 41.7737 148.142 45.125C147.628 50.0571 147.276 54.0649 147.111 55.9981H162.237C162.065 54.6193 161.809 52.442 161.564 49.8028C161.364 47.6383 161.193 45.3561 161.136 43.3765C161.079 41.3971 161.124 39.7389 161.395 38.7291C161.764 37.3522 162.454 36.0844 163.057 34.8975C163.661 33.7106 164.17 32.6052 164.239 31.5987C164.281 30.9792 164.145 30.6436 163.96 30.441C163.774 30.2383 163.502 30.1415 163.187 30.1113C162.557 30.051 161.845 30.291 161.845 30.291C161.781 30.3138 161.711 30.3159 161.645 30.2969C161.58 30.278 161.522 30.2389 161.48 30.1853C161.437 30.1317 161.413 30.0661 161.41 29.9979C161.407 29.9297 161.425 29.8623 161.462 29.805C161.462 29.805 161.716 29.4126 161.829 28.8578C161.941 28.303 161.919 27.6378 161.345 27.0069C160.785 26.3925 160.135 26.4079 159.543 26.5731C158.951 26.7383 158.496 27.0688 158.496 27.0688C158.435 27.1145 158.359 27.1374 158.283 27.1335C158.207 27.1296 158.135 27.0992 158.079 27.0475C158.023 26.9959 157.987 26.9262 157.977 26.8506C157.967 26.775 157.983 26.6982 158.024 26.6336C158.024 26.6336 158.461 25.921 158.74 25.066C158.88 24.6386 158.976 24.1796 158.967 23.7777C158.957 23.3757 158.853 23.0453 158.602 22.7942C158.163 22.3554 157.675 22.1649 157.124 22.1656L157.124 22.1659Z" fill="white"/>
<path d="M163.959 30.4417C164.549 32.1106 161.589 36.1309 160.346 38.372C159.349 40.1707 160.205 49.5922 160.764 55.9983H162.236C162.064 54.6196 161.808 52.4422 161.563 49.803C161.362 47.6385 161.192 45.3563 161.135 43.3767C161.077 41.3973 161.122 39.7391 161.393 38.7293C161.763 37.3525 162.452 36.0846 163.056 34.8977C163.659 33.7108 164.169 32.6054 164.237 31.5989C164.279 30.9799 164.144 30.6443 163.959 30.4416L163.959 30.4417Z" fill="#D2D2D2"/>
<path d="M152.443 20.9662C152.032 20.8248 151.566 20.7929 151.124 20.9902C150.608 21.2203 150.398 21.7806 150.307 22.3837C150.216 22.9868 150.24 23.688 150.307 24.3656C150.44 25.7208 150.751 26.9837 150.751 26.9837C150.762 27.0254 150.78 27.0647 150.805 27.0993C150.831 27.1339 150.863 27.1631 150.899 27.1853C150.936 27.2075 150.977 27.2223 151.019 27.2287C151.062 27.2352 151.105 27.2332 151.146 27.2229C151.188 27.2127 151.227 27.1943 151.262 27.1689C151.296 27.1435 151.326 27.1115 151.348 27.0748C151.37 27.0381 151.385 26.9973 151.391 26.9549C151.398 26.9125 151.396 26.8692 151.385 26.8275C151.385 26.8275 151.082 25.5972 150.955 24.3019C150.892 23.6542 150.875 22.9903 150.952 22.481C151.029 21.9717 151.196 21.6723 151.388 21.5865C151.654 21.4678 151.928 21.4807 152.231 21.5847C152.533 21.6889 152.851 21.89 153.131 22.1173C153.69 22.5719 154.091 23.109 154.091 23.109C154.117 23.1435 154.149 23.1726 154.186 23.1947C154.222 23.2167 154.263 23.2313 154.306 23.2375C154.348 23.2437 154.391 23.2415 154.433 23.2309C154.475 23.2204 154.514 23.2017 154.548 23.176C154.583 23.1504 154.612 23.1182 154.634 23.0814C154.656 23.0445 154.67 23.0036 154.676 22.9611C154.683 22.9186 154.68 22.8753 154.67 22.8336C154.659 22.792 154.641 22.7528 154.615 22.7184C154.615 22.7184 154.177 22.1265 153.542 21.6103C153.224 21.3522 152.853 21.1075 152.443 20.9661L152.443 20.9662Z" fill="#1F1F2E"/>
<path d="M150.711 19.8636C150.704 19.8632 150.697 19.8643 150.691 19.8671C150.578 19.9322 150.687 20.6152 150.799 21.2116C150.891 21.1209 150.998 21.0456 151.123 20.9897C151.272 20.9236 151.422 20.8835 151.573 20.8644C151.245 20.4015 150.841 19.8689 150.711 19.8629L150.711 19.8636Z" fill="#1F1F2E"/>
<path d="M159.684 20.9408C159.489 20.9525 158.787 21.4583 158.331 21.8019C158.591 21.9318 158.837 22.1063 159.062 22.3309C159.075 22.3439 159.087 22.3574 159.1 22.3707C159.415 21.8098 159.822 21.0615 159.726 20.9532C159.718 20.9436 159.703 20.9398 159.684 20.9409L159.684 20.9408Z" fill="#1F1F2E"/>
<path d="M151.792 21.5027C151.653 21.5009 151.518 21.5277 151.385 21.5871C151.193 21.6729 151.025 21.9721 150.948 22.4814C150.871 22.9908 150.888 23.655 150.952 24.3026C151.015 24.9499 151.123 25.5806 151.214 26.05C151.989 24.8033 152.927 23.7072 153.918 22.9007C153.75 22.7026 153.469 22.3957 153.127 22.1182C152.847 21.8909 152.53 21.6896 152.227 21.5854C152.076 21.5333 151.932 21.5041 151.792 21.5027L151.792 21.5027Z" fill="white"/>
<path d="M152.375 33.175C152.34 33.1743 152.303 33.175 152.267 33.1769C151.295 33.2156 150.145 34.0051 149.407 34.6028C149.371 34.8518 149.334 35.0991 149.298 35.3571C148.89 38.2813 148.491 41.7724 148.142 45.1241C147.628 50.0558 147.275 54.0636 147.11 55.9967H162.237C162.067 54.6445 161.814 52.5043 161.564 49.8015C161.363 47.6369 161.193 45.3552 161.135 43.3756C161.078 41.3962 161.123 39.7375 161.394 38.7278C161.513 38.2852 161.665 37.8545 161.836 37.4334C161.73 37.3104 161.627 37.2187 161.531 37.1739C160.232 36.5716 159.547 37.5488 159.167 37.2635C158.787 36.9782 159.219 36.223 157.857 35.367C156.495 34.511 155.231 36.0085 154.598 35.5647C153.965 35.1209 154.627 34.3204 153.075 33.3693C152.863 33.2393 152.626 33.1803 152.375 33.1754L152.375 33.175Z" fill="#FFA046"/>
<path d="M157.926 12.0356C157.391 12.0356 156.855 12.2378 156.445 12.6426L155.435 13.6408C155.386 13.69 155.318 13.7176 155.248 13.7176C155.178 13.7176 155.111 13.69 155.061 13.6408L154.053 12.6426C153.643 12.2379 153.106 12.036 152.571 12.036C152.035 12.036 151.501 12.2379 151.091 12.6426L151.053 12.6807C150.234 13.4903 150.234 14.7913 151.053 15.6009L155.248 19.7475L159.445 15.6009C160.264 14.7913 160.264 13.4903 159.445 12.6807L159.407 12.6426C158.998 12.2378 158.462 12.0356 157.926 12.0356Z" fill="#E5384B"/>
<path d="M152.574 11.5033C151.791 11.5187 150.886 12.0642 150.72 12.2622L150.682 12.2986C149.658 13.3105 149.658 14.9639 150.682 15.9758L155.064 20.3098C155.168 20.4123 155.335 20.4123 155.438 20.3098L159.823 15.9758C160.846 14.964 160.846 13.3105 159.823 12.2986L159.784 12.2622C158.761 11.2504 157.098 11.2504 156.074 12.2622L155.251 13.075L154.43 12.2622C153.918 11.7563 153.245 11.5032 152.574 11.5032L152.574 11.5033ZM152.574 12.0335C153.11 12.0335 153.646 12.2353 154.055 12.64L155.064 13.6382C155.168 13.7407 155.335 13.7407 155.438 13.6382L156.449 12.64C157.268 11.8305 158.591 11.8305 159.41 12.64L159.448 12.6782C160.267 13.4878 160.267 14.7885 159.448 15.5981L155.251 19.7449L151.056 15.5981C150.237 14.7885 150.237 13.4878 151.056 12.6782L151.094 12.64C151.504 12.2353 152.038 12.0335 152.574 12.0335H152.574Z" fill="#1F1F2E"/>
<path d="M157.926 12.0356C157.391 12.0356 156.855 12.2378 156.445 12.6426L155.435 13.6408C155.332 13.7432 155.165 13.7432 155.061 13.6408L154.053 12.6426C153.643 12.2379 153.106 12.036 152.571 12.036C152.035 12.036 151.501 12.2379 151.091 12.6426L151.053 12.6807C150.234 13.4903 150.234 14.7913 151.053 15.6009L151.189 15.7352C150.408 14.9234 150.419 13.6503 151.225 12.8531L151.264 12.8151C151.673 12.4103 152.207 12.2085 152.743 12.2085C153.279 12.2085 153.816 12.4103 154.225 12.8151C155.427 14.1496 155.423 13.9962 156.618 12.8151C157.027 12.4103 157.563 12.208 158.099 12.208C158.6 12.208 159.101 12.3849 159.499 12.7394C159.481 12.72 159.465 12.6995 159.445 12.6807L159.407 12.6427C158.998 12.2379 158.462 12.0356 157.926 12.0356Z" fill="#EF818D"/>
<path d="M152.599 13.9366C152.666 14.0488 152.716 14.1694 152.747 14.2915C152.777 14.4136 152.788 14.5348 152.778 14.6482C152.767 14.7617 152.737 14.8651 152.687 14.9526C152.638 15.0402 152.571 15.11 152.49 15.1583C152.408 15.2066 152.315 15.2323 152.214 15.2339C152.114 15.2356 152.008 15.2132 151.904 15.168C151.799 15.1229 151.698 15.0558 151.605 14.9706C151.512 14.8855 151.43 14.7839 151.364 14.6717C151.297 14.5596 151.247 14.439 151.216 14.3169C151.186 14.1948 151.175 14.0736 151.185 13.9601C151.195 13.8467 151.226 13.7432 151.276 13.6557C151.325 13.5682 151.392 13.4983 151.473 13.45C151.555 13.4018 151.648 13.3761 151.749 13.3744C151.849 13.3727 151.955 13.3951 152.059 13.4403C152.164 13.4855 152.265 13.5526 152.358 13.6377C152.451 13.7229 152.533 13.8245 152.599 13.9366Z" fill="#EF818D"/>
<path d="M153.478 15.7658C153.515 15.8285 153.543 15.8958 153.56 15.964C153.577 16.0322 153.583 16.0999 153.578 16.1633C153.572 16.2267 153.555 16.2844 153.527 16.3333C153.499 16.3822 153.462 16.4212 153.417 16.4482C153.325 16.5026 153.207 16.5046 153.089 16.4536C152.972 16.4026 152.863 16.3029 152.788 16.1764C152.75 16.1138 152.722 16.0464 152.705 15.9782C152.688 15.91 152.682 15.8423 152.688 15.779C152.694 15.7156 152.711 15.6578 152.739 15.6089C152.766 15.5601 152.804 15.521 152.849 15.4941C152.941 15.4396 153.058 15.4377 153.176 15.4886C153.294 15.5396 153.403 15.6393 153.478 15.7658Z" fill="#EF818D"/>
<path d="M159.502 12.7369C160.531 14.0229 157.631 18.143 153.442 17.9567L155.251 19.7448L159.448 15.5982C160.248 14.8075 160.265 13.5493 159.502 12.7367L159.502 12.7369Z" fill="#DC1D32"/>
<path d="M161.12 37.0658C160.832 37.5348 160.56 37.9839 160.347 38.3688C159.352 40.1626 160.204 49.59 160.762 55.9951H162.237C162.067 54.6429 161.814 52.5027 161.563 49.7999C161.362 47.6354 161.192 45.3536 161.135 43.374C161.077 41.3946 161.122 39.736 161.393 38.7262C161.512 38.2836 161.664 37.8529 161.836 37.4319C161.73 37.3088 161.627 37.2171 161.53 37.1724C161.389 37.1072 161.253 37.0747 161.12 37.0656L161.12 37.0658Z" fill="#F27F37"/>
<path d="M153.833 22.7996C153.61 22.848 153.331 23.0127 152.988 23.3874C152.135 24.3191 151.283 24.1012 150.925 23.9445C150.933 24.064 150.944 24.1841 150.955 24.3035C151.019 24.9508 151.126 25.5815 151.218 26.0508C151.992 24.8042 152.93 23.7079 153.922 22.9014C153.895 22.8702 153.865 22.8357 153.833 22.7996Z" fill="#D2D2D2"/>
<path d="M161.576 27.3072C161.586 27.342 161.595 27.3782 161.601 27.4159C161.829 28.8562 161.08 29.317 161.463 29.8032C161.463 29.8032 161.717 29.4108 161.829 28.856C161.923 28.3892 161.921 27.8443 161.576 27.3072Z" fill="#D2D2D2"/>
<path d="M158.602 22.7954C158.602 22.7954 158.937 24.8961 158.024 26.6348C158.024 26.6348 158.462 25.9222 158.741 25.0673C158.88 24.6398 158.977 24.1808 158.967 23.7789C158.958 23.3769 158.854 23.0465 158.602 22.7954Z" fill="#D2D2D2"/>
<path d="M150.279 43.1581C149.053 43.1546 148.122 43.2066 148.122 43.2066L147.493 45.0542C147.493 45.0542 157.235 44.4168 155.111 43.6758C153.917 43.259 151.854 43.1626 150.279 43.1581L150.279 43.1581ZM147.385 52.8935C147.331 53.4864 147.28 54.0485 147.238 54.5317C149.881 54.2785 153.058 53.8624 151.752 53.4069C150.672 53.0301 148.883 52.9154 147.385 52.8935H147.385Z" fill="#F47E1C"/>
<path d="M149.883 34.2396C149.711 34.3641 149.551 34.4885 149.406 34.6054C149.37 34.8544 149.333 35.1017 149.297 35.3597C148.89 38.284 148.49 41.775 148.141 45.1267C147.627 50.0584 147.275 54.0662 147.11 55.9993H147.518C147.869 50.8632 148.683 40.4443 149.883 34.2398L149.883 34.2396Z" fill="#FBCEBF"/>
<path d="M151.738 36.8334C151.689 37.0821 151.622 37.3245 151.538 37.5468C151.455 37.7691 151.358 37.9669 151.252 38.1289C151.147 38.2909 151.035 38.4139 150.923 38.491C150.811 38.568 150.701 38.5976 150.6 38.578C150.499 38.5584 150.408 38.49 150.333 38.3767C150.258 38.2634 150.2 38.1074 150.163 37.9177C150.125 37.7279 150.109 37.5082 150.115 37.2709C150.121 37.0336 150.148 36.7834 150.197 36.5347C150.245 36.286 150.313 36.0436 150.396 35.8213C150.479 35.599 150.576 35.4012 150.682 35.2392C150.788 35.0772 150.9 34.9542 151.011 34.8771C151.123 34.8001 151.233 34.7705 151.334 34.7901C151.435 34.8097 151.526 34.8781 151.601 34.9914C151.676 35.1047 151.734 35.2607 151.771 35.4504C151.809 35.6402 151.825 35.8599 151.819 36.0972C151.814 36.3345 151.786 36.5847 151.738 36.8334Z" fill="#FBCEBF"/>
<path d="M150.719 39.5118C150.78 39.5983 150.797 39.7236 150.766 39.8603C150.735 39.997 150.659 40.1337 150.555 40.2405C150.503 40.2933 150.446 40.3372 150.387 40.3697C150.328 40.4021 150.268 40.4225 150.21 40.4296C150.152 40.4367 150.098 40.4304 150.05 40.411C150.003 40.3917 149.963 40.3597 149.933 40.3168C149.872 40.2303 149.855 40.105 149.886 39.9683C149.917 39.8316 149.993 39.6949 150.097 39.5881C150.149 39.5352 150.206 39.4913 150.265 39.4589C150.324 39.4264 150.384 39.4061 150.442 39.399C150.5 39.3919 150.554 39.3982 150.602 39.4176C150.649 39.4369 150.689 39.4689 150.719 39.5118Z" fill="#FBCEBF"/>
<path d="M155.339 39.4472C154.972 39.4434 154.723 39.4884 154.657 39.6024C154.357 40.1209 158.79 40.8526 161.127 42.9967C161.106 42.0771 161.109 41.2322 161.152 40.5022C159.974 40.2141 156.767 39.462 155.339 39.4472L155.339 39.4472ZM154.997 51.4828C154.406 51.4786 154.039 51.5098 154.064 51.6006C154.408 52.886 160.128 53.7837 161.835 53.7837C161.882 53.7837 161.928 53.7828 161.973 53.7814C161.906 53.1827 161.835 52.5439 161.761 51.827C160.418 51.8156 156.737 51.4954 154.997 51.4828L154.997 51.4828Z" fill="#F47E1C"/>
<path d="M154.443 48.6581C156.145 48.53 157.502 48.1221 157.474 47.747C157.446 47.3719 156.043 47.1716 154.341 47.2997C152.638 47.4277 151.281 47.8356 151.309 48.2107C151.337 48.5859 152.74 48.7861 154.443 48.6581Z" fill="#F47E1C"/>
<path d="M157.128 21.5154C156.965 21.5135 156.801 21.5251 156.636 21.5493C155.759 21.6787 154.866 22.1429 154.01 22.8217C152.299 24.1791 150.726 26.4109 149.885 28.7964C149.471 29.9728 149.061 32.3305 148.652 35.2675C148.242 38.2045 147.844 41.6988 147.494 45.0544C147.003 49.7697 146.64 53.8417 146.455 55.9967H147.11C147.298 53.8134 147.658 49.7735 148.142 45.1236C148.492 41.7722 148.891 38.2816 149.299 35.3574C149.706 32.4332 150.133 30.0519 150.5 29.0127C151.297 26.7494 152.826 24.5943 154.415 23.3337C155.21 22.7034 156.017 22.3001 156.732 22.1948C157.447 22.0894 158.061 22.2526 158.602 22.7927C158.853 23.0437 158.957 23.3746 158.967 23.7766C158.976 24.1786 158.88 24.6375 158.74 25.065C158.461 25.9199 158.024 26.6321 158.024 26.6321C157.983 26.6967 157.966 26.7736 157.976 26.8493C157.986 26.9251 158.022 26.995 158.078 27.0468C158.135 27.0986 158.207 27.1291 158.283 27.1329C158.359 27.1367 158.435 27.1136 158.496 27.0677C158.496 27.0677 158.951 26.7373 159.543 26.5721C160.135 26.4069 160.786 26.3909 161.345 27.0053C161.919 27.6364 161.941 28.302 161.829 28.8567C161.717 29.4115 161.463 29.8035 161.463 29.8035C161.425 29.8607 161.407 29.9283 161.41 29.9966C161.413 30.0649 161.437 30.1305 161.479 30.1843C161.521 30.238 161.579 30.2771 161.645 30.2961C161.711 30.315 161.781 30.3129 161.845 30.29C161.845 30.29 162.557 30.0498 163.187 30.1102C163.503 30.1404 163.775 30.2368 163.96 30.4395C164.145 30.6421 164.281 30.9782 164.239 31.5976C164.171 32.6042 163.661 33.7091 163.057 34.896C162.454 36.0829 161.764 37.3508 161.395 38.7276C161.124 39.7373 161.079 41.396 161.136 43.3754C161.194 45.3549 161.364 47.6367 161.564 49.8013C161.793 52.2711 162.051 54.4808 162.238 55.997H162.895C162.708 54.4788 162.446 52.2366 162.215 49.7409C162.015 47.5846 161.846 45.3132 161.789 43.3568C161.732 41.4003 161.799 39.7416 162.025 38.897C162.367 37.6212 163.029 36.3891 163.638 35.1915C164.247 33.9939 164.81 32.8299 164.89 31.6422C164.94 30.9055 164.769 30.3565 164.441 29.9981C164.114 29.6397 163.665 29.4992 163.25 29.4594C162.729 29.4093 162.536 29.5152 162.231 29.5951C162.331 29.3858 162.397 29.3412 162.469 28.9857C162.608 28.2993 162.556 27.3661 161.828 26.5654C161.084 25.748 160.092 25.7414 159.368 25.9436C159.135 26.0086 159.145 26.0495 158.963 26.1348C159.121 25.8248 159.204 25.7468 159.36 25.2674C159.514 24.7954 159.632 24.275 159.619 23.7607C159.607 23.2465 159.456 22.724 159.062 22.3307C158.511 21.7805 157.833 21.5233 157.128 21.5155L157.128 21.5154Z" fill="#1F1F2E"/>
<path d="M159.959 40.2185C159.915 40.7601 159.894 41.3881 159.889 42.08C160.336 42.3527 160.757 42.6558 161.126 42.9943C161.126 42.9938 161.126 42.9934 161.126 42.993C161.105 42.0741 161.109 41.2296 161.151 40.5002C161.151 40.5001 161.151 40.4999 161.151 40.4998C160.86 40.4286 160.441 40.3284 159.959 40.2185L159.959 40.2185ZM160.401 51.769C160.454 52.4228 160.508 53.0632 160.562 53.6951C161.08 53.7511 161.525 53.7815 161.834 53.7815C161.881 53.7815 161.926 53.7806 161.972 53.7793C161.905 53.1851 161.834 52.5351 161.761 51.825C161.761 51.825 161.761 51.825 161.761 51.8249C161.429 51.8221 160.953 51.8002 160.401 51.769H160.401Z" fill="#EF660C"/>
<path d="M148.626 43.1804C148.479 43.186 148.419 43.1885 148.347 43.1919C148.281 43.7967 148.217 44.4009 148.154 45.0012C148.236 44.9952 148.342 44.9867 148.437 44.9795C148.498 44.3797 148.561 43.78 148.626 43.1804L148.626 43.1804ZM147.385 52.8882C147.331 53.4811 147.28 54.0432 147.238 54.5264C147.365 54.5142 147.496 54.4999 147.625 54.487C147.661 53.9844 147.7 53.4555 147.743 52.8963C147.623 52.8934 147.502 52.8899 147.385 52.8882L147.385 52.8882Z" fill="#F69442"/>
<defs>
<filter id="filter0_d_18_364" x="9.43469" y="20.2557" width="123.099" height="15.9432" filterUnits="userSpaceOnUse" color-interpolation-filters="sRGB">
<feFlood flood-opacity="0" result="BackgroundImageFix"/>
<feColorMatrix in="SourceAlpha" type="matrix" values="0 0 0 0 0 0 0 0 0 0 0 0 0 0 0 0 0 0 127 0" result="hardAlpha"/>
<feOffset dx="1" dy="1"/>
<feComposite in2="hardAlpha" operator="out"/>
<feColorMatrix type="matrix" values="0 0 0 0 0.972549 0 0 0 0 0.603922 0 0 0 0 0.254902 0 0 0 1 0"/>
<feBlend mode="normal" in2="BackgroundImageFix" result="effect1_dropShadow_18_364"/>
<feBlend mode="normal" in="SourceGraphic" in2="effect1_dropShadow_18_364" result="shape"/>
</filter>
</defs>
</svg>
