<svg width="56" height="56" viewBox="0 0 56 56" fill="none" xmlns="http://www.w3.org/2000/svg">
<path d="M25.9257 12.1032C25.1534 12.1184 24.2608 12.6564 24.0965 12.8518L24.059 12.888C23.0493 13.8862 23.0493 15.5174 24.059 16.5156L28.3824 20.7908C28.4847 20.8919 28.6492 20.8919 28.7515 20.7908L33.077 16.5156C34.0867 15.5174 34.0867 13.8862 33.077 12.888L33.0391 12.8518C32.0294 11.8536 30.3886 11.8536 29.3789 12.8518L28.567 13.6538L27.7569 12.8518C27.252 12.3527 26.5885 12.1032 25.9259 12.1032H25.9257ZM31.0112 12.6351C30.9783 12.6386 30.9454 12.6419 30.9126 12.647C30.8799 12.6512 30.8476 12.6571 30.8149 12.6632C30.7823 12.6691 30.7499 12.6766 30.7177 12.6844C30.6854 12.6921 30.6533 12.7003 30.6213 12.7098C30.5893 12.7192 30.5574 12.7297 30.5259 12.7405C30.4943 12.7514 30.4629 12.7628 30.4318 12.7753C30.4941 12.7504 30.5574 12.7286 30.6213 12.7098C30.6852 12.6911 30.7498 12.6756 30.8149 12.6633C30.8799 12.6507 30.9454 12.6415 31.0112 12.6352V12.6351ZM31.407 12.6351C31.4728 12.6411 31.5382 12.6507 31.6033 12.6632C31.6683 12.6756 31.733 12.6911 31.7969 12.7097C31.8607 12.7284 31.9242 12.7503 31.9864 12.7753C31.9553 12.7628 31.9239 12.7514 31.8923 12.7404C31.8608 12.7294 31.8287 12.719 31.7969 12.7097C31.7331 12.691 31.6684 12.6755 31.6033 12.6632C31.5383 12.6507 31.4728 12.6414 31.407 12.6351ZM25.1492 12.7758C25.1182 12.7882 25.0875 12.8016 25.057 12.8156C25.0264 12.8295 24.996 12.8442 24.9661 12.86C25.026 12.8288 25.0871 12.8006 25.1492 12.7758ZM26.7034 12.7758C26.7656 12.8006 26.8267 12.8289 26.8866 12.86C26.8265 12.8289 26.7656 12.8006 26.7034 12.7758ZM24.4282 13.262H24.4287C24.4236 13.2671 24.4188 13.2724 24.4138 13.2774C24.4188 13.2723 24.4233 13.2671 24.4281 13.262H24.4282ZM24.3034 13.3977C24.2905 13.4131 24.2775 13.4286 24.265 13.4443C24.2775 13.4286 24.2904 13.4131 24.3034 13.3977ZM24.0592 13.756C24.0119 13.8447 23.9715 13.9364 23.9384 14.0296C23.9716 13.9364 24.0119 13.8447 24.0592 13.756ZM23.9076 14.1233C23.8792 14.2177 23.8581 14.3137 23.8438 14.4105C23.8343 14.475 23.828 14.54 23.8248 14.605C23.8283 14.54 23.8344 14.475 23.8438 14.4105C23.8579 14.3137 23.8792 14.2176 23.9076 14.1233ZM23.8253 14.8067C23.8269 14.8371 23.8286 14.8674 23.8321 14.8976C23.8355 14.93 23.8389 14.9622 23.8438 14.9944C23.8533 15.0589 23.866 15.1235 23.8818 15.1871C23.8895 15.2189 23.8981 15.2501 23.9076 15.2816C23.8792 15.1872 23.8581 15.0912 23.8438 14.9944C23.8346 14.9321 23.8285 14.8695 23.8253 14.8067ZM23.9741 15.4684C23.9993 15.5298 24.0276 15.5898 24.0591 15.6489C24.0276 15.5899 23.9992 15.5295 23.9741 15.4684ZM24.2721 15.97C24.2809 15.9808 24.2896 15.991 24.2984 16.0018C24.2896 15.9912 24.2807 15.9808 24.2721 15.97ZM24.0881 20.3496V20.3501C24.0813 20.3496 24.0742 20.3509 24.0686 20.3535C23.9573 20.4176 24.0652 21.0913 24.1753 21.6797C24.1842 21.6709 24.1934 21.6628 24.2026 21.6543C24.2268 21.632 24.2518 21.6107 24.2781 21.5906C24.3434 21.5402 24.4157 21.4967 24.4953 21.4612C24.5906 21.4187 24.687 21.387 24.7838 21.3649C24.8253 21.3553 24.8671 21.3479 24.9087 21.3418C24.8671 21.3478 24.8253 21.3553 24.7838 21.3649C24.687 21.387 24.5906 21.419 24.4953 21.4616C24.4158 21.4972 24.3436 21.5403 24.2781 21.5906C24.252 21.6107 24.2266 21.6321 24.2026 21.6543C23.9012 21.9324 23.7594 22.3714 23.6892 22.8363C23.5993 23.4312 23.6236 24.1232 23.6892 24.7917C23.8002 25.9241 24.0362 26.9826 24.1062 27.2826C23.7836 27.8886 23.5011 28.5197 23.2744 29.1629C22.8654 30.3235 22.4616 32.6494 22.0577 35.5469C21.6538 38.4444 21.2611 41.8913 20.916 45.202C20.4312 49.8536 20.0733 53.8711 19.8901 55.9973H20.5378V55.9978H35.46V55.9973H36.1095C35.9245 54.4997 35.6661 52.2876 35.4378 49.8253C35.2405 47.6981 35.0739 45.4576 35.018 43.527C34.962 41.5968 35.0275 39.9605 35.2505 39.1272C35.5882 37.8686 36.2419 36.653 36.8427 35.4715C37.4434 34.2901 37.9984 33.1418 38.078 31.9701C38.1274 31.2432 37.9582 30.7016 37.6347 30.3481C37.3113 29.9945 36.8692 29.8558 36.4596 29.8166C35.9455 29.7672 35.7552 29.8716 35.4541 29.9505C35.5527 29.744 35.6178 29.7 35.6888 29.3493C35.8259 28.6721 35.7751 27.7515 35.056 26.9616C34.3221 26.1552 33.3443 26.1487 32.6298 26.3482C32.4001 26.4122 32.41 26.4526 32.2304 26.5368C32.3863 26.231 32.4676 26.1541 32.6221 25.681C32.7742 25.2155 32.8897 24.702 32.8777 24.1947C32.8661 23.7041 32.7257 23.2065 32.3652 22.8232C32.6768 22.2699 33.0784 21.5315 32.9835 21.4247C32.9758 21.4152 32.961 21.4112 32.9415 21.4125C32.7494 21.4241 32.0572 21.9227 31.6071 22.2615C31.2345 22.0756 30.8319 21.9842 30.4198 21.9797C30.2592 21.978 30.0973 21.9893 29.9349 22.0132C29.2134 22.1196 28.4818 22.4575 27.7692 22.9541C27.5874 22.7382 27.2717 22.391 26.8803 22.073C26.5671 21.8184 26.2016 21.5769 25.7966 21.4374H25.7962C25.5184 21.3419 25.2148 21.2971 24.911 21.3411C24.9203 21.3394 24.9293 21.3385 24.9386 21.3368C24.615 20.8801 24.2165 20.3549 24.0883 20.349L24.0881 20.3496ZM24.6354 22.1358H24.6358C24.6282 22.1434 24.6201 22.1522 24.6123 22.1611C24.6199 22.1524 24.6275 22.1437 24.6353 22.1358H24.6354ZM24.5947 22.1819C24.5879 22.1911 24.5803 22.2004 24.573 22.2104C24.5798 22.2005 24.5873 22.191 24.5947 22.1819ZM24.5712 22.2132C24.5644 22.2232 24.557 22.2337 24.5499 22.2445C24.5567 22.2336 24.5639 22.2233 24.5712 22.2132ZM24.5074 22.3172C24.5015 22.329 24.4949 22.3413 24.4889 22.3538C24.4948 22.3413 24.501 22.329 24.5074 22.3172ZM24.4544 22.4303C24.4476 22.4485 24.4402 22.4674 24.4332 22.4868C24.44 22.4674 24.447 22.4486 24.4544 22.4303ZM32.0311 22.5262C32.0515 22.5415 32.0715 22.5571 32.0917 22.5731C32.0716 22.557 32.0515 22.5415 32.0311 22.5262ZM32.1202 22.5959C32.1474 22.6182 32.1741 22.6415 32.2007 22.6651C32.1741 22.6414 32.1474 22.6182 32.1202 22.5959ZM30.4158 22.6207C30.4767 22.6207 30.5365 22.6232 30.5959 22.6284C30.5365 22.6241 30.4768 22.6207 30.4158 22.6207ZM30.4158 22.6207V22.6212C30.3569 22.6212 30.297 22.6237 30.2367 22.628C30.2971 22.6237 30.357 22.6203 30.4158 22.6203V22.6207ZM30.2127 22.6303C30.1522 22.6354 30.0911 22.6421 30.0291 22.6512C29.7206 22.6966 29.3946 22.7981 29.0598 22.9501C29.3947 22.798 29.7206 22.6962 30.0291 22.6507C30.0911 22.6415 30.1522 22.6353 30.2127 22.6304V22.6303ZM30.6307 22.6312C30.6889 22.6363 30.7463 22.6446 30.803 22.6551C30.7462 22.6446 30.6889 22.6368 30.6307 22.6312ZM24.3873 22.6329C24.3813 22.6545 24.3755 22.6769 24.3702 22.6998C24.3753 22.6769 24.3816 22.6546 24.3873 22.6329ZM30.8504 22.6654C30.8693 22.6697 30.8885 22.6731 30.9073 22.6777C30.8885 22.6734 30.8692 22.67 30.8504 22.6654ZM32.2313 22.693C32.2607 22.7198 32.2899 22.7474 32.3186 22.7759C32.2899 22.7475 32.2605 22.7198 32.2313 22.693ZM31.0037 22.7039C31.0232 22.7099 31.0424 22.7161 31.0616 22.7225C31.0423 22.7165 31.0233 22.7098 31.0037 22.7039ZM24.3645 22.7234C24.3602 22.7435 24.3556 22.7635 24.3515 22.7845C24.3557 22.7637 24.3602 22.7435 24.3645 22.7234ZM31.1051 22.7373C31.1244 22.7441 31.1434 22.7519 31.1626 22.7595C31.1435 22.7518 31.1243 22.7444 31.1051 22.7373ZM31.2119 22.7799C31.2284 22.7867 31.2448 22.7942 31.2612 22.802C31.2448 22.7943 31.2284 22.787 31.2119 22.7799ZM31.3127 22.8278C31.3294 22.8366 31.3465 22.8441 31.363 22.8531C31.3465 22.844 31.3294 22.8363 31.3127 22.8278ZM24.3402 22.8409C24.3351 22.8707 24.33 22.9014 24.3252 22.9327C24.3162 22.9925 24.3081 23.054 24.3017 23.1177C24.3076 23.0542 24.3157 22.9923 24.3246 22.9327C24.3289 22.9013 24.3346 22.8707 24.34 22.8409H24.3402ZM31.453 22.9055C31.4694 22.9156 31.4859 22.9264 31.5023 22.9372C31.486 22.9265 31.4695 22.9157 31.453 22.9055ZM31.5511 22.9698C31.5677 22.9814 31.5843 22.9934 31.6009 23.0056C31.5844 22.9934 31.5678 22.9815 31.5511 22.9698ZM28.9159 23.0186C28.7232 23.1137 28.5279 23.2247 28.3319 23.3511C28.5279 23.2247 28.7232 23.1137 28.9159 23.0186ZM31.6379 23.0336C31.6577 23.0486 31.6772 23.0641 31.6968 23.0801C31.6773 23.064 31.6578 23.0486 31.6379 23.0336ZM31.7433 23.12C31.7559 23.131 31.7688 23.1419 31.7813 23.1535C31.7688 23.142 31.7558 23.131 31.7433 23.12ZM27.1369 23.2113C27.1546 23.2311 27.1714 23.2498 27.1876 23.2683C27.1964 23.2782 27.2053 23.2884 27.2135 23.2977C27.2058 23.2882 27.1964 23.2781 27.1876 23.2683C27.1718 23.2502 27.1542 23.2306 27.1369 23.2113ZM31.8435 23.2122C31.8536 23.222 31.8637 23.2307 31.8737 23.2407V23.2411C31.8636 23.231 31.8536 23.222 31.8435 23.2122ZM24.2765 23.555C24.2748 23.6287 24.2748 23.7038 24.2748 23.7798C24.2755 23.8564 24.2774 23.9339 24.2799 24.0123C24.2825 24.0889 24.2859 24.1663 24.2904 24.2439C24.2862 24.1661 24.2828 24.0889 24.2799 24.0123C24.2774 23.9339 24.2757 23.8564 24.2748 23.7798C24.2743 23.7037 24.2744 23.6287 24.2765 23.555ZM24.2915 24.2566C24.294 24.296 24.2966 24.3354 24.2991 24.3751C24.3008 24.4046 24.3034 24.4343 24.3051 24.4638C24.3 24.3946 24.2951 24.3254 24.2912 24.2566H24.2915ZM24.3146 24.5755C24.3163 24.5972 24.318 24.6188 24.3206 24.6405C24.3231 24.67 24.3265 24.6997 24.3293 24.7292C24.3328 24.7672 24.337 24.8049 24.3412 24.8427C24.3369 24.8048 24.3324 24.7671 24.3289 24.7292C24.3264 24.6998 24.3238 24.67 24.3213 24.6405C24.3196 24.6188 24.317 24.5971 24.3153 24.5755H24.3146ZM24.3418 24.8546C24.3495 24.9276 24.3583 25.0004 24.3671 25.0726C24.3583 25.0003 24.3496 24.9278 24.3418 24.8546ZM24.4043 25.3598C24.4238 25.4989 24.4442 25.6352 24.4654 25.766C24.5057 26.0157 24.5478 26.247 24.587 26.4486C24.5479 26.2473 24.5055 26.0153 24.4654 25.766C24.4442 25.6349 24.4237 25.4993 24.4043 25.3598ZM33.476 26.8728C33.5139 26.8737 33.5521 26.8762 33.59 26.8796C33.5142 26.8728 33.4382 26.8709 33.3625 26.8745C33.4004 26.8728 33.4381 26.872 33.476 26.8728ZM33.2494 26.8819C33.1739 26.8896 33.0986 26.901 33.0241 26.9159C33.0986 26.9011 33.1739 26.8895 33.2494 26.8819ZM33.8166 26.9186C34.0424 26.976 34.2647 27.0919 34.4756 27.2909C34.2647 27.092 34.0424 26.976 33.8166 26.9186ZM34.8438 27.75C34.8673 27.7892 34.889 27.8284 34.9088 27.8676C34.8964 27.8432 34.8819 27.8192 34.8682 27.7948C34.8594 27.78 34.8527 27.765 34.8438 27.75ZM35.7055 30.4897C35.5624 30.5117 35.4324 30.5396 35.3282 30.5652C35.4324 30.5396 35.5624 30.5116 35.7055 30.4897ZM36.6223 30.4957C36.6941 30.5118 36.7623 30.5328 36.8267 30.5589C36.9556 30.6114 37.0686 30.6851 37.1601 30.7851V30.7856C37.1828 30.8105 37.2051 30.8372 37.2261 30.8665C37.2052 30.8372 37.1827 30.8108 37.1601 30.786V30.7856C37.0686 30.6856 36.9556 30.6115 36.8267 30.5589C36.7624 30.5327 36.694 30.5119 36.6223 30.4957ZM37.2261 30.867C37.2287 30.8705 37.2312 30.8747 37.2338 30.8792C37.2321 30.8767 37.2304 30.8741 37.2287 30.8715C37.2278 30.8699 37.227 30.8681 37.2262 30.8673L37.2261 30.867ZM37.3338 31.0638C37.3355 31.0672 37.3372 31.0697 37.3381 31.0734C37.3373 31.0717 37.3364 31.07 37.3355 31.0683C37.3349 31.0666 37.3347 31.0658 37.3338 31.0641L37.3338 31.0638ZM37.4351 31.9277C37.4264 32.0518 37.4112 32.1774 37.3899 32.3045C37.4112 32.1773 37.4267 32.0518 37.4351 31.9277Z" fill="#F89A41"/>
<path d="M29.1237 22.166V22.1664C28.9965 22.1664 28.8661 22.177 28.7321 22.1967C28.0172 22.3021 27.2095 22.7049 26.4149 23.3351C24.8257 24.5955 23.2969 26.7508 22.4993 29.0141C22.1332 30.0532 21.7062 32.4345 21.2986 35.3589C20.8909 38.2832 20.4916 41.7738 20.1422 45.1251C19.6282 50.0572 19.2758 54.065 19.1111 55.9981H34.2373C34.0651 54.6194 33.809 52.442 33.5642 49.8029C33.3635 47.6383 33.1934 45.3562 33.136 43.3766C33.0786 41.3972 33.1236 39.739 33.3946 38.7292C33.7639 37.3523 34.4535 36.0845 35.0571 34.8976C35.6606 33.7107 36.1702 32.6053 36.2386 31.5987C36.2807 30.9793 36.1453 30.6437 35.9599 30.441C35.7744 30.2383 35.5024 30.1416 35.1873 30.1114C34.557 30.051 33.8448 30.2911 33.8448 30.2911C33.7806 30.3139 33.7107 30.316 33.6452 30.297C33.5797 30.278 33.5218 30.239 33.4796 30.1854C33.4374 30.1317 33.413 30.0662 33.41 29.998C33.4069 29.9298 33.4252 29.8623 33.4624 29.8051C33.4624 29.8051 33.7165 29.4126 33.8288 28.8579C33.9411 28.3031 33.9189 27.6379 33.3446 27.0069C32.7854 26.3925 32.1351 26.408 31.5432 26.5732C30.9513 26.7384 30.4955 27.0688 30.4955 27.0688C30.4345 27.1145 30.3595 27.1375 30.2834 27.1336C30.2073 27.1297 30.135 27.0993 30.0789 27.0476C30.0229 26.9959 29.9867 26.9262 29.9766 26.8506C29.9665 26.775 29.9832 26.6983 30.0237 26.6337C30.0237 26.6337 30.4611 25.921 30.7403 25.0661C30.8799 24.6387 30.9763 24.1797 30.9668 23.7777C30.9574 23.3758 30.8532 23.0453 30.6019 22.7943C30.1625 22.3555 29.6747 22.165 29.1237 22.1657L29.1237 22.166Z" fill="white"/>
<path d="M35.9589 30.4418C36.5486 32.1107 33.5887 36.1309 32.3464 38.372C31.3493 40.1708 32.2048 49.5923 32.7636 55.9983H34.2359C34.0637 54.6197 33.8075 52.4422 33.5628 49.8031C33.362 47.6385 33.1919 45.3564 33.1345 43.3768C33.0771 41.3974 33.1221 39.7392 33.3931 38.7294C33.7625 37.3525 34.4521 36.0847 35.0556 34.8978C35.6591 33.7109 36.1688 32.6055 36.2372 31.5989C36.2792 30.9799 36.1441 30.6444 35.9588 30.4417L35.9589 30.4418Z" fill="#D2D2D2"/>
<path d="M24.4429 20.9662C24.0321 20.8248 23.566 20.7929 23.1241 20.9902C22.6084 21.2203 22.3981 21.7806 22.307 22.3837C22.2159 22.9868 22.2405 23.688 22.307 24.3656C22.4399 25.7208 22.7514 26.9837 22.7514 26.9837C22.7616 27.0254 22.7799 27.0647 22.8053 27.0993C22.8307 27.1339 22.8627 27.1631 22.8994 27.1853C22.9361 27.2075 22.9768 27.2223 23.0191 27.2287C23.0615 27.2352 23.1048 27.2332 23.1464 27.2229C23.188 27.2127 23.2273 27.1943 23.2618 27.1689C23.2963 27.1435 23.3255 27.1115 23.3477 27.0748C23.3699 27.0381 23.3847 26.9973 23.3911 26.9549C23.3976 26.9125 23.3956 26.8692 23.3853 26.8275C23.3853 26.8275 23.0823 25.5972 22.9553 24.3019C22.8917 23.6542 22.8752 22.9903 22.9517 22.481C23.0285 21.9717 23.1959 21.6723 23.3881 21.5865C23.6542 21.4678 23.928 21.4807 24.2307 21.5847C24.5334 21.6889 24.8509 21.89 25.1306 22.1173C25.69 22.5719 26.091 23.109 26.091 23.109C26.1166 23.1435 26.1487 23.1726 26.1856 23.1947C26.2224 23.2167 26.2632 23.2313 26.3057 23.2375C26.3482 23.2437 26.3914 23.2415 26.433 23.2309C26.4747 23.2204 26.5138 23.2017 26.5482 23.176C26.5826 23.1504 26.6117 23.1182 26.6337 23.0814C26.6557 23.0445 26.6703 23.0036 26.6765 22.9611C26.6827 22.9186 26.6805 22.8753 26.6699 22.8336C26.6594 22.792 26.6407 22.7528 26.615 22.7184C26.615 22.7184 26.1768 22.1265 25.5415 21.6103C25.2239 21.3522 24.8533 21.1075 24.4425 20.9661L24.4429 20.9662Z" fill="#1F1F2E"/>
<path d="M22.7109 19.8636C22.7038 19.8632 22.6966 19.8643 22.691 19.8671C22.5783 19.9322 22.6875 20.6152 22.7994 21.2116C22.8913 21.1209 22.9982 21.0456 23.1234 20.9897C23.2715 20.9236 23.4225 20.8835 23.5731 20.8644C23.245 20.4015 22.8409 19.8689 22.7109 19.8629L22.7109 19.8636Z" fill="#1F1F2E"/>
<path d="M31.6838 20.9409C31.4889 20.9525 30.7868 21.4584 30.3306 21.8019C30.591 21.9319 30.8373 22.1063 31.0621 22.331C31.0751 22.3439 31.0872 22.3574 31.0996 22.3707C31.4154 21.8099 31.8224 21.0616 31.7262 20.9532C31.7182 20.9437 31.7034 20.9398 31.6836 20.941L31.6838 20.9409Z" fill="#1F1F2E"/>
<path d="M23.7925 21.5026C23.6529 21.5009 23.518 21.5277 23.3849 21.587C23.1927 21.6728 23.0253 21.9721 22.9483 22.4814C22.8716 22.9907 22.8883 23.655 22.9519 24.3026C23.0153 24.9499 23.1229 25.5806 23.2144 26.0499C23.9887 24.8033 24.927 23.7072 25.9182 22.9007C25.7499 22.7026 25.4687 22.3956 25.1272 22.1181C24.8476 21.8908 24.5302 21.6895 24.2275 21.5853C24.0762 21.5332 23.9322 21.5041 23.7926 21.5026L23.7925 21.5026Z" fill="white"/>
<path d="M24.3753 33.1751C24.3394 33.1744 24.3029 33.1751 24.2666 33.1769C23.2951 33.2156 22.1452 34.0052 21.407 34.6029C21.3707 34.8518 21.3339 35.0991 21.2978 35.3571C20.8902 38.2814 20.4908 41.7724 20.1415 45.1242C19.6275 50.0558 19.275 54.0636 19.1104 55.9968H34.237C34.0673 54.6445 33.8142 52.5044 33.5635 49.8015C33.3628 47.637 33.1926 45.3552 33.1353 43.3756C33.0779 41.3962 33.1228 39.7376 33.3939 38.7278C33.5126 38.2852 33.6649 37.8545 33.8363 37.4335C33.7302 37.3104 33.627 37.2188 33.5305 37.174C32.2321 36.5717 31.5472 37.5489 31.1672 37.2636C30.7872 36.9782 31.2188 36.223 29.857 35.3671C28.4953 34.5111 27.2314 36.0086 26.598 35.5648C25.9646 35.121 26.6267 34.3205 25.0749 33.3694C24.8628 33.2394 24.6261 33.1804 24.3753 33.1755L24.3753 33.1751Z" fill="#FFA046"/>
<path d="M29.9264 12.0356C29.3908 12.0357 28.855 12.2379 28.4455 12.6427L27.4354 13.6409C27.3856 13.6901 27.3184 13.7177 27.2484 13.7177C27.1783 13.7177 27.1111 13.6901 27.0613 13.6409L26.0526 12.6427C25.6432 12.2379 25.1065 12.0361 24.5707 12.0361C24.0351 12.0361 23.5006 12.2379 23.0912 12.6427L23.0531 12.6808C22.2342 13.4904 22.2343 14.7913 23.0531 15.6009L27.2483 19.7476L31.4454 15.6009C32.2643 14.7913 32.2643 13.4904 31.4454 12.6808L31.4073 12.6427C30.9979 12.2379 30.4621 12.0356 29.9264 12.0356Z" fill="#E5384B"/>
<path d="M24.574 11.5033C23.7911 11.5188 22.8863 12.0643 22.7198 12.2623L22.6817 12.2987C21.6582 13.3105 21.6582 14.964 22.6817 15.9759L27.0642 20.3098C27.1679 20.4123 27.3348 20.4123 27.4385 20.3098L31.8227 15.9759C32.8461 14.9641 32.8461 13.3105 31.8227 12.2987L31.7845 12.2623C30.761 11.2505 29.0979 11.2505 28.0744 12.2623L27.2512 13.075L26.4299 12.2623C25.9181 11.7564 25.2456 11.5033 24.574 11.5033L24.574 11.5033ZM24.574 12.0336C25.1097 12.0336 25.6462 12.2353 26.0556 12.6401L27.0642 13.6383C27.1679 13.7408 27.3348 13.7408 27.4385 13.6383L28.4488 12.6401C29.2677 11.8305 30.5913 11.8305 31.4103 12.6401L31.4484 12.6783C32.2673 13.4878 32.2673 14.7886 31.4484 15.5982L27.2514 19.745L23.0561 15.5982C22.2372 14.7886 22.2371 13.4879 23.0561 12.6783L23.0942 12.6401C23.5037 12.2353 24.0384 12.0336 24.5741 12.0336H24.574Z" fill="#1F1F2E"/>
<path d="M29.9264 12.0356C29.3908 12.0357 28.855 12.2379 28.4455 12.6427L27.4354 13.6409C27.3317 13.7433 27.165 13.7433 27.0613 13.6409L26.0526 12.6427C25.6432 12.2379 25.1065 12.0361 24.5707 12.0361C24.0351 12.0361 23.5006 12.2379 23.0912 12.6427L23.0531 12.6808C22.2342 13.4904 22.2343 14.7913 23.0531 15.6009L23.1893 15.7352C22.4076 14.9235 22.4191 13.6504 23.2255 12.8532L23.2636 12.8151C23.673 12.4103 24.2074 12.2085 24.7431 12.2085C25.2789 12.2085 25.8155 12.4103 26.225 12.8151C27.4268 14.1497 27.4227 13.9962 28.6179 12.8151C29.0273 12.4103 29.5632 12.208 30.0988 12.208C30.6001 12.208 31.1012 12.385 31.4991 12.7395C31.481 12.72 31.4646 12.6996 31.4454 12.6808L31.4074 12.6427C30.9979 12.2379 30.4621 12.0356 29.9264 12.0356Z" fill="#EF818D"/>
<path d="M24.5992 13.9367C24.6659 14.0489 24.716 14.1694 24.7466 14.2915C24.7772 14.4136 24.7877 14.5349 24.7775 14.6483C24.7673 14.7617 24.7366 14.8652 24.6872 14.9527C24.6378 15.0402 24.5706 15.1101 24.4894 15.1584C24.4083 15.2066 24.3148 15.2323 24.2143 15.234C24.1138 15.2357 24.0083 15.2133 23.9037 15.1681C23.7992 15.1229 23.6976 15.0558 23.6049 14.9707C23.5123 14.8855 23.4302 14.784 23.3635 14.6718C23.2968 14.5596 23.2467 14.4391 23.2161 14.317C23.1855 14.1949 23.175 14.0736 23.1852 13.9602C23.1954 13.8467 23.2261 13.7433 23.2755 13.6558C23.3249 13.5683 23.3921 13.4984 23.4733 13.4501C23.5544 13.4018 23.6479 13.3761 23.7484 13.3745C23.8489 13.3728 23.9544 13.3952 24.059 13.4404C24.1635 13.4856 24.2651 13.5527 24.3578 13.6378C24.4505 13.723 24.5325 13.8245 24.5992 13.9367Z" fill="#EF818D"/>
<path d="M25.4779 15.7658C25.5152 15.8285 25.5432 15.8958 25.5603 15.964C25.5773 16.0322 25.5832 16.0999 25.5775 16.1633C25.5718 16.2267 25.5547 16.2844 25.5271 16.3333C25.4995 16.3822 25.4619 16.4212 25.4166 16.4482C25.3251 16.5026 25.2074 16.5046 25.0895 16.4536C24.9715 16.4026 24.863 16.3029 24.7877 16.1764C24.7505 16.1138 24.7225 16.0464 24.7054 15.9782C24.6883 15.91 24.6824 15.8423 24.6881 15.779C24.6938 15.7156 24.711 15.6578 24.7386 15.6089C24.7662 15.5601 24.8037 15.521 24.8491 15.4941C24.9406 15.4396 25.0583 15.4377 25.1762 15.4886C25.2941 15.5396 25.4027 15.6393 25.4779 15.7658Z" fill="#EF818D"/>
<path d="M31.5022 12.7369C32.5309 14.0229 29.6306 18.143 25.4421 17.9567L27.2514 19.7448L31.4484 15.5982C32.2482 14.8075 32.2646 13.5493 31.5021 12.7367L31.5022 12.7369Z" fill="#DC1D32"/>
<path d="M33.12 37.0658C32.8319 37.5348 32.5599 37.9839 32.3465 38.3688C31.3521 40.1626 32.2035 49.59 32.7624 55.9951H34.2364C34.0667 54.6429 33.8135 52.5027 33.5629 49.7999C33.3622 47.6354 33.192 45.3536 33.1347 43.374C33.0772 41.3946 33.1222 39.736 33.3932 38.7262C33.512 38.2836 33.6643 37.8529 33.8357 37.4319C33.7296 37.3088 33.6264 37.2171 33.5299 37.1724C33.3893 37.1072 33.2528 37.0747 33.12 37.0656L33.12 37.0658Z" fill="#F27F37"/>
<path d="M25.8328 22.7996C25.6105 22.8479 25.3313 23.0126 24.9883 23.3874C24.1353 24.319 23.2831 24.1011 22.925 23.9444C22.9333 24.0639 22.9436 24.184 22.9553 24.3034C23.0187 24.9507 23.1265 25.5814 23.218 26.0508C23.9923 24.8041 24.9305 23.7079 25.9218 22.9014C25.8952 22.8701 25.8648 22.8357 25.8328 22.7996Z" fill="#D2D2D2"/>
<path d="M33.5762 27.3071C33.5863 27.3419 33.5945 27.3782 33.6005 27.4158C33.8288 28.8561 33.0803 29.3169 33.4625 29.8032C33.4625 29.8032 33.7165 29.4107 33.8288 28.8559C33.9234 28.3891 33.9211 27.8442 33.5762 27.3071Z" fill="#D2D2D2"/>
<path d="M30.6023 22.7954C30.6023 22.7954 30.9367 24.8961 30.0242 26.6348C30.0242 26.6348 30.4616 25.9222 30.7408 25.0673C30.8804 24.6398 30.9767 24.1808 30.9673 23.7789C30.9579 23.3769 30.8536 23.0465 30.6023 22.7954Z" fill="#D2D2D2"/>
<path d="M22.2788 43.1581C21.0532 43.1546 20.1219 43.2066 20.1219 43.2066L19.4936 45.0542C19.4936 45.0542 29.2356 44.4168 27.1115 43.6758C25.9167 43.259 23.8544 43.1626 22.2787 43.1581L22.2788 43.1581ZM19.3854 52.8935C19.3316 53.4864 19.2805 54.0485 19.238 54.5317C21.8809 54.2785 25.0582 53.8624 23.7525 53.4069C22.6721 53.0301 20.8832 52.9154 19.3854 52.8935H19.3854Z" fill="#F47E1C"/>
<path d="M21.8828 34.2396C21.7113 34.3642 21.5509 34.4886 21.4065 34.6055C21.3702 34.8545 21.3334 35.1018 21.2974 35.3597C20.8897 38.284 20.4903 41.7751 20.141 45.1268C19.627 50.0585 19.2745 54.0663 19.1099 55.9994H19.5184C19.8694 50.8632 20.6828 40.4444 21.8828 34.2398L21.8828 34.2396Z" fill="#FBCEBF"/>
<path d="M23.7374 36.8334C23.6892 37.0822 23.6215 37.3246 23.5382 37.5469C23.455 37.7692 23.3577 37.9669 23.2521 38.1289C23.1465 38.2909 23.0345 38.414 22.9226 38.491C22.8107 38.5681 22.701 38.5977 22.5998 38.578C22.4986 38.5584 22.408 38.49 22.3329 38.3767C22.2579 38.2634 22.2 38.1075 22.1626 37.9177C22.1251 37.728 22.1089 37.5082 22.1147 37.2709C22.1205 37.0336 22.1483 36.7835 22.1965 36.5348C22.2448 36.2861 22.3124 36.0436 22.3957 35.8214C22.4789 35.5991 22.5762 35.4013 22.6818 35.2393C22.7874 35.0773 22.8994 34.9542 23.0113 34.8772C23.1233 34.8001 23.2329 34.7706 23.3341 34.7902C23.4353 34.8098 23.526 34.8782 23.601 34.9915C23.676 35.1048 23.7339 35.2608 23.7713 35.4505C23.8088 35.6402 23.8251 35.86 23.8192 36.0973C23.8134 36.3346 23.7856 36.5847 23.7374 36.8334Z" fill="#FBCEBF"/>
<path d="M22.7194 39.5117C22.7801 39.5982 22.7969 39.7236 22.7661 39.8602C22.7352 39.9969 22.6593 40.1337 22.555 40.2404C22.5033 40.2933 22.4462 40.3372 22.387 40.3696C22.3278 40.4021 22.2675 40.4224 22.2098 40.4295C22.152 40.4366 22.0977 40.4303 22.0502 40.411C22.0026 40.3916 21.9627 40.3596 21.9326 40.3168C21.8719 40.2303 21.8551 40.1049 21.886 39.9682C21.9168 39.8316 21.9927 39.6948 22.097 39.5881C22.1487 39.5352 22.2058 39.4913 22.265 39.4588C22.3242 39.4264 22.3845 39.406 22.4423 39.3989C22.5001 39.3918 22.5543 39.3981 22.6018 39.4175C22.6494 39.4368 22.6893 39.4689 22.7194 39.5117Z" fill="#FBCEBF"/>
<path d="M27.3387 39.4472C26.9721 39.4434 26.7235 39.4884 26.6574 39.6024C26.3573 40.1209 30.7901 40.8526 33.1267 42.9967C33.106 42.0771 33.1095 41.2322 33.152 40.5022C31.9736 40.2141 28.7673 39.462 27.3387 39.4472L27.3387 39.4472ZM26.9968 51.4828C26.4062 51.4786 26.0393 51.5098 26.0636 51.6006C26.4081 52.886 32.128 53.7837 33.8352 53.7837C33.8816 53.7837 33.9277 53.7828 33.9736 53.7814C33.9057 53.1827 33.8354 52.5439 33.7616 51.827C32.4179 51.8156 28.7372 51.4954 26.9968 51.4828L26.9968 51.4828Z" fill="#F47E1C"/>
<path d="M26.4428 48.6581C28.1452 48.53 29.5024 48.1221 29.4742 47.747C29.446 47.3719 28.043 47.1717 26.3406 47.2997C24.6381 47.4278 23.2809 47.8357 23.3092 48.2108C23.3374 48.5859 24.7403 48.7862 26.4428 48.6581Z" fill="#F47E1C"/>
<path d="M29.1281 21.5153C28.9653 21.5135 28.8011 21.525 28.6366 21.5493C27.7591 21.6786 26.8661 22.1428 26.0104 22.8216C24.2989 24.179 22.726 26.4108 21.8853 28.7963C21.4707 29.9727 21.0614 32.3305 20.652 35.2674C20.2425 38.2044 19.844 41.6988 19.4943 45.0543C19.0028 49.7697 18.6405 53.8417 18.4548 55.9966H19.1105C19.2983 53.8134 19.6579 49.7735 20.1426 45.1236C20.4919 41.7721 20.8912 38.2816 21.2989 35.3574C21.7066 32.4331 22.1335 30.0518 22.4997 29.0126C23.2973 26.7494 24.8261 24.5942 26.4152 23.3336C27.2098 22.7033 28.0175 22.3001 28.7324 22.1947C29.4472 22.0893 30.0615 22.2526 30.6021 22.7926C30.8535 23.0437 30.9576 23.3746 30.9671 23.7765C30.9765 24.1785 30.8801 24.6375 30.7406 25.0649C30.4614 25.9198 30.024 26.6321 30.024 26.6321C29.9832 26.6966 29.9663 26.7735 29.9763 26.8493C29.9862 26.925 30.0224 26.9949 30.0785 27.0467C30.1346 27.0985 30.2071 27.129 30.2834 27.1328C30.3596 27.1366 30.4348 27.1136 30.4958 27.0676C30.4958 27.0676 30.9515 26.7372 31.5435 26.572C32.1354 26.4068 32.7857 26.3909 33.3449 27.0053C33.9192 27.6363 33.9414 28.3019 33.8291 28.8567C33.7167 29.4114 33.4627 29.8035 33.4627 29.8035C33.4253 29.8607 33.4068 29.9282 33.4098 29.9965C33.4128 30.0648 33.4371 30.1305 33.4794 30.1842C33.5216 30.2379 33.5796 30.277 33.6452 30.296C33.7109 30.315 33.7808 30.3128 33.8451 30.2899C33.8451 30.2899 34.5573 30.0498 35.1876 30.1102C35.5027 30.1404 35.7747 30.2367 35.9601 30.4394C36.1456 30.6421 36.281 30.9781 36.2389 31.5975C36.1707 32.6041 35.6609 33.709 35.0574 34.8959C34.4538 36.0829 33.7642 37.3507 33.3949 38.7276C33.124 39.7373 33.0789 41.3959 33.1363 43.3754C33.1937 45.3548 33.3638 47.6366 33.5645 49.8013C33.7936 52.2711 34.0514 54.4807 34.2385 55.9969H34.8955C34.708 54.4788 34.4461 52.2365 34.2146 49.7408C34.0146 47.5846 33.8458 45.3131 33.7891 43.3568C33.7323 41.4002 33.7988 39.7416 34.0248 38.897C34.3671 37.6211 35.0293 36.389 35.6383 35.1914C36.2472 33.9938 36.8098 32.8298 36.8904 31.6422C36.9404 30.9054 36.7694 30.3564 36.4415 29.998C36.1137 29.6396 35.6651 29.4991 35.2499 29.4593C34.7288 29.4093 34.5359 29.5151 34.2307 29.595C34.3306 29.3858 34.3971 29.3411 34.4691 28.9857C34.6081 28.2992 34.5565 27.3661 33.8276 26.5653C33.0837 25.7479 32.0926 25.7414 31.3682 25.9436C31.1354 26.0085 31.1454 26.0494 30.9634 26.1348C31.1214 25.8247 31.2038 25.7468 31.3604 25.2673C31.5146 24.7953 31.6317 24.2749 31.6195 23.7607C31.6075 23.2464 31.4563 22.724 31.0625 22.3306C30.5116 21.7804 29.8335 21.5232 29.1281 21.5154L29.1281 21.5153Z" fill="#1F1F2E"/>
<path d="M31.9593 40.2185C31.9153 40.7601 31.8936 41.3881 31.8894 42.08C32.3358 42.3527 32.7571 42.6558 33.1259 42.9943C33.1259 42.9938 33.1259 42.9934 33.1259 42.993C33.1053 42.0741 33.1088 41.2296 33.1513 40.5002C33.1513 40.5001 33.1513 40.4999 33.1513 40.4998C32.8598 40.4286 32.4414 40.3284 31.9593 40.2185L31.9593 40.2185ZM32.4006 51.769C32.4541 52.4228 32.508 53.0632 32.5623 53.6951C33.0802 53.7511 33.5247 53.7815 33.8345 53.7815C33.8806 53.7815 33.9264 53.7806 33.9721 53.7793C33.9048 53.1851 33.8339 52.5351 33.7608 51.825C33.7608 51.825 33.7608 51.825 33.7608 51.8249C33.429 51.8221 32.9531 51.8002 32.4006 51.769H32.4006Z" fill="#EF660C"/>
<path d="M20.6255 43.1804C20.4787 43.186 20.4186 43.1885 20.347 43.1919C20.2813 43.7967 20.2167 44.4009 20.154 45.0012C20.2358 44.9952 20.3421 44.9867 20.437 44.9795C20.4975 44.3797 20.5604 43.78 20.6255 43.1804L20.6255 43.1804ZM19.3852 52.8882C19.3314 53.4811 19.2803 54.0432 19.2378 54.5264C19.3649 54.5142 19.496 54.4999 19.625 54.487C19.6613 53.9844 19.7004 53.4555 19.7429 52.8963C19.6231 52.8934 19.502 52.8899 19.3852 52.8882L19.3852 52.8882Z" fill="#F69442"/>
</svg>
